<?xml version="1.0" encoding="utf-8"?>
<!-- Generator: Adobe Illustrator 24.0.1, SVG Export Plug-In . SVG Version: 6.00 Build 0)  -->
<svg version="1.1" id="Layer_1" xmlns="http://www.w3.org/2000/svg" xmlns:xlink="http://www.w3.org/1999/xlink" x="0px" y="0px"
	 viewBox="0 0 399.8 400" style="enable-background:new 0 0 399.8 400;" xml:space="preserve">
<style type="text/css">
	.st0{fill-rule:evenodd;clip-rule:evenodd;fill:#FFFFFF;}
</style>
<path class="st0" d="M365.9,400H34.7C16.1,400,0,385.3,0,366.6v-192c0-2.2,1.2-3.9,2.7-5.3c0.1-0.1,0.1-0.3,0.2-0.4
	c0.1-0.2,0.3-0.2,0.5-0.4c0.1-0.1,0.2-0.3,0.4-0.5l47-40.8v-69c0-4.6,3.7-8.3,8.3-8.3h80.6L194.9,2c3.1-2.7,7.8-2.7,10.9,0L261,50
	h80.6c4.6,0,8.3,3.7,8.3,8.3v69l47,40.8c0.1,0.1,0.2,0.3,0.3,0.4c0.2,0.2,0.4,0.2,0.5,0.4c0.4,0.4,0.6,1,0.8,1.5
	c0.2,0.3,0.4,0.6,0.5,0.9c0.5,1.1,0.7,2.3,0.7,3.4c0,0.1,0.1,0.2,0.1,0.3v191.2C399.7,384.8,384.6,400,365.9,400z M34.7,383.3h331.2
	c1.7,0,3.4-0.3,5-0.8L204.5,234.7c-2.1-1.8-6.3-1.8-8.4,0.1L29.8,382.6C31.4,383,33,383.3,34.7,383.3z M16.8,366.6
	c0,1.6,0.3,3.1,0.8,4.6l100.9-89.7L16.8,192.1V366.6z M21.9,174.5l28.9,25.4v-50.5L21.9,174.5z M200.3,19.4L165.1,50h70.5
	L200.3,19.4z M66.8,66.1V214l64.1,56.4l54.2-48.2c8.6-7.4,21.8-7.4,30.3-0.1l54.1,48.1l64.4-56.5v-79.6c-0.7-1.9-0.8-4.1,0-6v-62
	L66.8,66.1L66.8,66.1z M349.9,149.4v50.4l28.9-25.3L349.9,149.4z M384,192l-101.9,89.4l101.1,89.9c0.5-1.5,0.8-3,0.8-4.6V192z"/>
</svg>
