<svg id="svg" version="1.1" xmlns="http://www.w3.org/2000/svg" xmlns:xlink="http://www.w3.org/1999/xlink" width="400" height="400" viewBox="0, 0, 400,400"><g id="svgg"><path id="path0" d="M204.265 88.575 C 204.015 89.227,201.601 89.994,199.789 89.998 C 199.123 89.999,198.169 90.287,197.669 90.637 C 197.169 90.987,195.409 91.508,193.757 91.795 C 192.106 92.082,190.436 92.605,190.046 92.958 C 189.607 93.356,188.621 93.600,187.454 93.600 C 186.419 93.600,185.150 93.877,184.634 94.214 C 184.118 94.552,182.550 95.007,181.148 95.225 C 179.747 95.443,177.757 95.976,176.726 96.410 C 175.695 96.845,174.283 97.200,173.589 97.200 C 172.894 97.200,171.869 97.560,171.309 98.000 C 170.628 98.536,169.682 98.801,168.446 98.804 C 167.300 98.806,165.842 99.180,164.600 99.791 C 163.415 100.374,161.879 100.780,160.831 100.787 C 159.859 100.794,158.777 101.059,158.427 101.376 C 158.077 101.693,156.712 102.132,155.395 102.351 C 154.078 102.571,152.287 103.122,151.415 103.575 C 150.399 104.105,149.073 104.400,147.715 104.400 C 146.552 104.400,145.600 104.566,145.600 104.769 C 145.600 105.211,143.650 105.876,141.277 106.243 C 140.330 106.390,138.896 106.845,138.093 107.255 C 137.171 107.725,135.785 108.000,134.342 108.000 C 132.461 108.000,132.012 108.133,131.817 108.745 C 131.632 109.328,131.053 109.538,129.161 109.710 C 127.830 109.831,126.437 110.205,126.066 110.541 C 125.694 110.877,124.312 111.329,122.995 111.546 C 121.678 111.762,119.970 112.201,119.200 112.520 C 118.430 112.840,116.915 113.229,115.833 113.385 C 114.752 113.541,113.469 113.929,112.984 114.247 C 112.498 114.565,111.133 114.931,109.951 115.060 C 108.768 115.189,107.080 115.623,106.200 116.024 C 105.320 116.426,103.565 116.867,102.300 117.006 C 101.035 117.144,100.000 117.407,100.000 117.590 C 100.000 118.050,97.722 118.800,96.324 118.800 C 95.688 118.800,94.492 119.145,93.665 119.567 C 92.839 119.988,91.451 120.466,90.581 120.629 C 89.712 120.792,88.780 121.212,88.511 121.562 C 88.130 122.059,88.021 138.142,88.017 194.494 L 88.012 266.788 89.106 267.048 C 89.708 267.191,90.481 267.551,90.825 267.848 C 91.552 268.476,96.692 270.400,97.644 270.400 C 98.001 270.400,98.750 270.760,99.309 271.200 C 99.869 271.640,100.872 272.000,101.539 272.000 C 102.207 272.000,102.850 272.158,102.970 272.351 C 103.089 272.544,104.560 273.123,106.239 273.638 C 107.918 274.153,109.381 274.806,109.489 275.087 C 109.618 275.424,110.495 275.600,112.039 275.600 C 113.960 275.600,114.485 275.747,114.893 276.400 C 115.168 276.840,115.705 277.200,116.088 277.200 C 116.470 277.200,118.002 277.580,119.492 278.045 C 120.981 278.510,123.068 279.159,124.129 279.487 C 125.189 279.815,126.153 280.335,126.271 280.642 C 126.398 280.972,127.056 281.200,127.881 281.200 C 128.649 281.200,129.754 281.535,130.338 281.944 C 130.922 282.354,132.266 282.783,133.325 282.898 C 134.509 283.027,135.597 283.433,136.151 283.954 C 136.711 284.480,137.577 284.800,138.441 284.800 C 139.206 284.800,140.537 285.160,141.400 285.600 C 142.263 286.040,143.464 286.400,144.069 286.400 C 144.674 286.400,145.491 286.743,145.884 287.163 C 146.279 287.584,147.454 288.053,148.505 288.209 C 149.552 288.365,150.850 288.839,151.389 289.263 C 151.928 289.687,153.292 290.143,154.419 290.277 C 155.792 290.439,156.620 290.764,156.930 291.260 C 157.250 291.772,157.867 292.000,158.934 292.000 C 159.791 292.000,160.948 292.331,161.538 292.744 C 162.122 293.154,163.590 293.717,164.800 293.996 C 166.010 294.275,167.450 294.733,168.000 295.012 C 168.550 295.292,169.810 295.739,170.800 296.005 C 171.790 296.271,172.718 296.676,172.862 296.906 C 173.006 297.136,174.147 297.462,175.398 297.632 C 176.648 297.802,177.970 298.209,178.336 298.537 C 178.701 298.864,179.720 299.262,180.600 299.422 C 181.480 299.581,182.650 300.020,183.200 300.398 C 183.750 300.776,184.979 301.186,185.931 301.309 C 186.883 301.432,187.963 301.795,188.331 302.117 C 188.699 302.439,189.842 302.823,190.872 302.971 C 191.901 303.119,193.190 303.591,193.735 304.020 C 194.280 304.449,195.238 304.802,195.863 304.804 C 196.488 304.806,197.900 305.250,199.000 305.791 C 200.100 306.332,201.488 306.781,202.084 306.787 C 202.681 306.794,203.508 307.164,203.923 307.610 C 205.040 308.809,210.130 308.841,211.235 307.655 C 211.654 307.205,212.669 306.711,213.490 306.557 C 214.312 306.403,215.527 305.945,216.192 305.540 C 216.856 305.135,217.912 304.802,218.538 304.801 C 219.164 304.801,220.184 304.439,220.805 303.997 C 221.425 303.555,222.532 303.074,223.265 302.927 C 223.997 302.781,224.835 302.422,225.127 302.131 C 225.418 301.839,226.361 301.488,227.221 301.350 C 228.081 301.213,228.990 300.853,229.241 300.550 C 229.493 300.248,230.092 300.000,230.574 300.000 C 231.056 300.000,232.195 299.640,233.106 299.200 C 234.016 298.760,234.947 298.400,235.175 298.400 C 235.403 298.400,236.028 297.725,236.565 296.900 L 237.542 295.400 237.671 251.961 C 237.814 203.881,237.581 207.541,240.547 206.784 C 241.456 206.551,243.043 206.010,244.074 205.581 C 245.105 205.151,246.596 204.800,247.388 204.800 C 248.180 204.800,249.227 204.544,249.714 204.231 C 250.201 203.918,251.590 203.477,252.800 203.252 C 254.010 203.027,255.713 202.473,256.585 202.021 C 257.456 201.570,258.841 201.200,259.662 201.200 C 260.483 201.200,261.750 200.861,262.477 200.447 C 263.205 200.032,264.610 199.573,265.600 199.426 C 266.590 199.280,267.826 198.881,268.346 198.541 C 268.866 198.200,270.565 197.745,272.122 197.529 C 273.805 197.296,275.350 196.825,275.931 196.369 C 276.537 195.891,277.536 195.600,278.565 195.600 C 279.476 195.600,280.577 195.352,281.011 195.048 C 281.445 194.745,282.851 194.279,284.137 194.012 C 285.422 193.746,287.222 193.188,288.137 192.773 C 289.051 192.357,290.492 192.014,291.337 192.009 C 292.257 192.004,293.282 191.679,293.891 191.200 C 294.523 190.703,295.514 190.400,296.507 190.400 C 297.426 190.400,298.675 190.048,299.446 189.572 C 300.183 189.116,301.824 188.639,303.093 188.512 C 304.362 188.384,305.808 187.964,306.308 187.577 C 306.807 187.190,308.152 186.744,309.298 186.587 C 310.443 186.429,311.817 186.014,312.351 185.665 C 312.884 185.315,314.469 184.910,315.873 184.765 C 317.403 184.606,318.729 184.227,319.182 183.816 C 319.598 183.440,320.717 183.032,321.669 182.910 C 322.621 182.788,324.068 182.354,324.884 181.944 C 325.700 181.535,326.568 181.200,326.813 181.200 C 328.231 181.200,328.262 180.698,328.530 153.195 C 328.812 124.291,328.816 124.400,327.349 124.400 C 326.822 124.400,325.628 124.058,324.696 123.640 C 323.763 123.222,322.128 122.676,321.063 122.425 C 319.997 122.175,318.737 121.724,318.263 121.423 C 317.788 121.123,316.590 120.752,315.600 120.600 C 314.610 120.448,313.205 119.981,312.477 119.562 C 311.750 119.143,310.469 118.800,309.631 118.800 C 308.712 118.800,307.703 118.482,307.087 117.997 C 306.525 117.555,305.196 117.080,304.133 116.940 C 303.070 116.801,301.570 116.378,300.800 116.000 C 300.030 115.622,298.512 115.197,297.426 115.054 C 296.340 114.912,295.042 114.526,294.540 114.198 C 294.039 113.869,293.210 113.600,292.699 113.600 C 292.187 113.600,291.056 113.229,290.185 112.775 C 289.313 112.322,287.526 111.772,286.214 111.553 C 284.901 111.334,283.617 110.980,283.359 110.766 C 283.101 110.552,281.689 110.126,280.221 109.819 C 278.753 109.511,277.118 108.977,276.590 108.630 C 276.061 108.284,275.037 107.999,274.314 107.999 C 273.591 107.998,272.453 107.664,271.785 107.256 C 271.117 106.849,269.426 106.314,268.028 106.068 C 266.629 105.821,265.181 105.345,264.811 105.010 C 264.440 104.674,263.647 104.400,263.049 104.400 C 262.451 104.400,261.212 104.038,260.295 103.595 C 259.379 103.152,257.584 102.622,256.307 102.416 C 255.030 102.210,253.705 101.763,253.364 101.421 C 253.022 101.079,252.120 100.800,251.358 100.800 C 250.597 100.800,249.085 100.350,248.000 99.800 C 246.915 99.250,245.399 98.800,244.632 98.800 C 243.205 98.800,241.200 98.094,241.200 97.592 C 241.200 97.437,240.319 97.207,239.243 97.080 C 238.167 96.952,236.595 96.477,235.749 96.024 C 234.904 95.571,233.741 95.200,233.166 95.200 C 231.820 95.200,229.600 94.428,229.600 93.961 C 229.600 93.762,228.591 93.600,227.358 93.600 C 225.550 93.600,224.885 93.406,223.927 92.600 C 223.064 91.874,222.269 91.600,221.023 91.600 C 219.962 91.600,218.944 91.317,218.354 90.858 C 217.829 90.450,216.526 90.020,215.458 89.902 C 214.390 89.785,213.003 89.309,212.375 88.844 C 210.938 87.782,204.649 87.574,204.265 88.575 M108.500 270.142 C 108.344 270.675,102.655 270.564,102.475 270.025 C 102.366 269.698,103.230 269.599,105.461 269.682 C 107.187 269.747,108.555 269.954,108.500 270.142 M128.700 277.833 C 128.319 278.215,127.555 277.597,127.839 277.138 C 128.007 276.864,128.231 276.871,128.518 277.158 C 128.754 277.394,128.836 277.698,128.700 277.833 M134.000 277.400 C 134.000 278.062,133.824 278.103,132.500 277.748 C 131.203 277.400,131.393 276.800,132.800 276.800 C 133.600 276.800,134.000 277.000,134.000 277.400 M227.660 292.464 C 228.922 293.816,228.702 294.382,226.908 294.394 C 225.957 294.400,225.305 292.947,225.744 291.801 C 226.071 290.948,226.327 291.037,227.660 292.464 M233.902 293.500 C 234.014 293.840,233.591 294.000,232.584 294.000 C 231.292 294.000,231.168 293.921,231.616 293.381 C 232.202 292.675,233.655 292.751,233.902 293.500 M225.000 299.200 C 224.864 299.420,224.123 299.600,223.353 299.600 C 222.521 299.600,222.053 299.438,222.200 299.200 C 222.336 298.980,223.077 298.800,223.847 298.800 C 224.679 298.800,225.147 298.962,225.000 299.200 M220.976 300.213 C 221.745 300.794,221.745 300.806,220.976 301.375 C 219.186 302.700,217.244 302.151,217.778 300.470 C 218.106 299.437,219.774 299.303,220.976 300.213 " stroke="none" fill="#c7dafb" fill-rule="evenodd"></path><path id="path1" d="M173.700 8.293 C 172.336 8.416,172.000 8.600,172.000 9.223 C 172.000 9.954,171.680 10.000,166.608 10.000 L 161.215 10.000 160.964 11.000 C 160.720 11.973,160.617 12.000,157.157 12.000 C 153.890 12.000,153.600 12.064,153.600 12.784 C 153.600 13.495,153.271 13.580,150.100 13.684 C 146.816 13.793,146.592 13.855,146.472 14.700 C 146.354 15.533,146.141 15.600,143.621 15.600 C 141.014 15.600,139.542 16.208,140.303 16.970 C 140.467 17.133,140.420 17.230,140.200 17.186 C 137.952 16.732,135.600 17.251,135.600 18.200 C 135.600 19.171,135.520 19.200,132.800 19.200 C 130.267 19.200,130.000 19.276,130.000 20.000 C 130.000 20.692,129.733 20.800,128.033 20.800 C 125.551 20.800,124.800 21.089,124.800 22.043 C 124.800 22.676,124.499 22.800,122.963 22.800 C 121.478 22.800,121.086 22.950,120.921 23.579 C 120.768 24.165,120.307 24.388,119.059 24.479 C 117.688 24.579,117.378 24.756,117.272 25.500 C 117.162 26.279,116.905 26.400,115.372 26.400 C 113.867 26.400,113.600 26.520,113.600 27.200 C 113.600 27.761,113.332 28.002,112.700 28.005 C 111.008 28.016,110.000 28.479,110.000 29.247 C 110.000 29.873,109.696 30.000,108.200 30.000 C 106.547 30.000,106.400 30.081,106.400 31.000 C 106.400 31.919,106.253 32.000,104.600 32.000 C 103.067 32.000,102.800 32.119,102.800 32.800 C 102.800 33.392,102.533 33.600,101.774 33.600 C 100.432 33.600,99.200 34.277,99.200 35.014 C 99.200 35.372,98.812 35.600,98.200 35.600 C 97.477 35.600,97.200 35.815,97.200 36.377 C 97.200 37.005,96.874 37.178,95.500 37.277 C 94.087 37.379,93.778 37.552,93.672 38.300 C 93.590 38.878,93.268 39.200,92.772 39.200 C 92.238 39.200,92.000 39.477,92.001 40.100 C 92.001 40.892,91.798 41.000,90.301 41.000 C 88.842 41.000,88.582 41.128,88.472 41.900 C 88.380 42.551,88.076 42.800,87.372 42.800 C 86.667 42.800,86.400 43.019,86.400 43.600 C 86.400 44.117,86.133 44.400,85.646 44.400 C 85.231 44.400,84.597 44.850,84.237 45.400 C 83.779 46.099,83.220 46.400,82.381 46.400 C 81.468 46.400,81.089 46.640,80.800 47.400 C 80.591 47.950,80.145 48.400,79.810 48.400 C 79.467 48.400,79.200 48.750,79.200 49.200 C 79.200 49.787,78.933 50.000,78.200 50.000 C 77.400 50.000,77.200 50.200,77.200 51.000 C 77.200 51.688,76.980 52.000,76.496 52.000 C 76.109 52.000,75.575 52.348,75.309 52.774 C 75.029 53.223,74.275 53.600,73.513 53.674 C 72.503 53.771,72.170 54.008,72.072 54.700 C 71.980 55.351,71.676 55.600,70.972 55.600 C 70.267 55.600,70.000 55.819,70.000 56.400 C 70.000 56.924,69.733 57.200,69.228 57.200 C 68.732 57.200,68.410 57.522,68.328 58.100 C 68.246 58.678,67.878 59.046,67.300 59.128 C 66.735 59.208,66.400 59.533,66.400 60.000 C 66.400 60.467,66.065 60.792,65.500 60.872 C 64.922 60.954,64.554 61.322,64.472 61.900 C 64.390 62.478,64.068 62.800,63.572 62.800 C 63.076 62.800,62.800 63.076,62.800 63.572 C 62.800 64.068,62.478 64.390,61.900 64.472 C 61.322 64.554,60.954 64.922,60.872 65.500 C 60.792 66.065,60.467 66.400,60.000 66.400 C 59.533 66.400,59.208 66.735,59.128 67.300 C 59.046 67.878,58.678 68.246,58.100 68.328 C 57.522 68.410,57.200 68.732,57.200 69.228 C 57.200 69.733,56.924 70.000,56.400 70.000 C 55.819 70.000,55.600 70.267,55.600 70.972 C 55.600 71.676,55.351 71.980,54.700 72.072 C 54.008 72.170,53.771 72.503,53.674 73.513 C 53.600 74.275,53.223 75.029,52.774 75.309 C 52.348 75.575,52.000 76.109,52.000 76.496 C 52.000 76.980,51.688 77.200,51.000 77.200 C 50.200 77.200,50.000 77.400,50.000 78.200 C 50.000 78.933,49.787 79.200,49.200 79.200 C 48.750 79.200,48.400 79.467,48.400 79.810 C 48.400 80.145,47.950 80.591,47.400 80.800 C 46.640 81.089,46.400 81.468,46.400 82.381 C 46.400 83.220,46.099 83.779,45.400 84.237 C 44.850 84.597,44.400 85.231,44.400 85.646 C 44.400 86.133,44.117 86.400,43.600 86.400 C 43.019 86.400,42.800 86.667,42.800 87.372 C 42.800 88.076,42.551 88.380,41.900 88.472 C 41.128 88.582,41.000 88.842,41.000 90.301 C 41.000 91.798,40.892 92.001,40.100 92.001 C 39.477 92.000,39.200 92.238,39.200 92.772 C 39.200 93.268,38.878 93.590,38.300 93.672 C 37.552 93.778,37.379 94.087,37.277 95.500 C 37.178 96.874,37.005 97.200,36.377 97.200 C 35.815 97.200,35.600 97.477,35.600 98.200 C 35.600 98.812,35.372 99.200,35.014 99.200 C 34.277 99.200,33.600 100.432,33.600 101.774 C 33.600 102.533,33.392 102.800,32.800 102.800 C 32.119 102.800,32.000 103.067,32.000 104.600 C 32.000 106.253,31.919 106.400,31.000 106.400 C 30.081 106.400,30.000 106.547,30.000 108.200 C 30.000 109.696,29.873 110.000,29.247 110.000 C 28.479 110.000,28.016 111.008,28.005 112.700 C 28.002 113.332,27.761 113.600,27.200 113.600 C 26.520 113.600,26.400 113.867,26.400 115.372 C 26.400 116.905,26.279 117.162,25.500 117.272 C 24.756 117.378,24.579 117.688,24.479 119.059 C 24.388 120.307,24.165 120.768,23.579 120.921 C 22.950 121.086,22.800 121.478,22.800 122.963 C 22.800 124.499,22.676 124.800,22.043 124.800 C 21.089 124.800,20.800 125.551,20.800 128.033 C 20.800 129.733,20.692 130.000,20.000 130.000 C 19.276 130.000,19.200 130.267,19.200 132.800 C 19.200 135.520,19.171 135.600,18.200 135.600 C 17.251 135.600,16.732 137.952,17.186 140.200 C 17.230 140.420,17.133 140.467,16.970 140.303 C 16.208 139.542,15.600 141.014,15.600 143.621 C 15.600 146.141,15.533 146.354,14.700 146.472 C 13.855 146.592,13.793 146.816,13.684 150.100 C 13.580 153.271,13.495 153.600,12.784 153.600 C 12.064 153.600,12.000 153.890,12.000 157.157 C 12.000 160.617,11.973 160.720,11.000 160.964 L 10.000 161.215 10.000 166.608 C 10.000 171.595,9.944 172.000,9.257 172.000 C 8.111 172.000,8.000 174.476,8.000 200.000 C 8.000 225.524,8.111 228.000,9.257 228.000 C 9.944 228.000,10.000 228.405,10.000 233.392 L 10.000 238.785 11.000 239.036 C 11.973 239.280,12.000 239.383,12.000 242.843 C 12.000 246.110,12.064 246.400,12.784 246.400 C 13.495 246.400,13.580 246.729,13.684 249.900 C 13.793 253.184,13.855 253.408,14.700 253.528 C 15.532 253.646,15.600 253.860,15.600 256.366 C 15.600 258.568,15.750 259.212,16.400 259.800 C 16.990 260.334,17.200 261.032,17.200 262.462 C 17.200 264.263,17.271 264.400,18.200 264.400 C 19.171 264.400,19.200 264.480,19.200 267.200 C 19.200 269.733,19.276 270.000,20.000 270.000 C 20.692 270.000,20.800 270.267,20.800 271.967 C 20.800 274.449,21.089 275.200,22.043 275.200 C 22.676 275.200,22.800 275.501,22.800 277.037 C 22.800 278.522,22.950 278.914,23.579 279.079 C 24.165 279.232,24.388 279.693,24.479 280.941 C 24.579 282.312,24.756 282.622,25.500 282.728 C 26.279 282.838,26.400 283.095,26.400 284.628 C 26.400 286.133,26.520 286.400,27.200 286.400 C 27.761 286.400,28.002 286.668,28.005 287.300 C 28.016 288.992,28.479 290.000,29.247 290.000 C 29.873 290.000,30.000 290.304,30.000 291.800 C 30.000 293.453,30.081 293.600,31.000 293.600 C 31.919 293.600,32.000 293.747,32.000 295.400 C 32.000 296.933,32.119 297.200,32.800 297.200 C 33.392 297.200,33.600 297.467,33.600 298.226 C 33.600 299.568,34.277 300.800,35.014 300.800 C 35.372 300.800,35.600 301.188,35.600 301.800 C 35.600 302.523,35.815 302.800,36.377 302.800 C 37.005 302.800,37.178 303.126,37.277 304.500 C 37.379 305.913,37.552 306.222,38.300 306.328 C 38.878 306.410,39.200 306.732,39.200 307.228 C 39.200 307.765,39.478 308.000,40.111 308.000 C 40.931 308.000,41.006 308.158,40.870 309.590 C 40.737 310.985,40.846 311.238,41.759 311.654 C 42.332 311.915,42.800 312.460,42.800 312.864 C 42.800 313.333,43.090 313.600,43.600 313.600 C 44.117 313.600,44.400 313.867,44.400 314.354 C 44.400 314.769,44.850 315.403,45.400 315.763 C 46.099 316.221,46.400 316.780,46.400 317.619 C 46.400 318.532,46.640 318.911,47.400 319.200 C 47.950 319.409,48.400 319.855,48.400 320.190 C 48.400 320.533,48.750 320.800,49.200 320.800 C 49.787 320.800,50.000 321.067,50.000 321.800 C 50.000 322.600,50.200 322.800,51.000 322.800 C 51.688 322.800,52.000 323.020,52.000 323.504 C 52.000 323.891,52.348 324.425,52.774 324.691 C 53.223 324.971,53.600 325.725,53.674 326.487 C 53.771 327.497,54.008 327.830,54.700 327.928 C 55.351 328.020,55.600 328.324,55.600 329.028 C 55.600 329.733,55.819 330.000,56.400 330.000 C 56.931 330.000,57.200 330.267,57.200 330.792 C 57.200 331.304,57.554 331.674,58.200 331.836 C 58.826 331.993,59.200 332.370,59.200 332.843 C 59.200 333.324,59.481 333.600,59.972 333.600 C 60.468 333.600,60.790 333.922,60.872 334.500 C 60.954 335.078,61.322 335.446,61.900 335.528 C 62.478 335.610,62.800 335.932,62.800 336.428 C 62.800 336.924,63.076 337.200,63.572 337.200 C 64.068 337.200,64.390 337.522,64.472 338.100 C 64.554 338.678,64.922 339.046,65.500 339.128 C 66.065 339.208,66.400 339.533,66.400 340.000 C 66.400 340.467,66.735 340.792,67.300 340.872 C 67.878 340.954,68.246 341.322,68.328 341.900 C 68.410 342.478,68.732 342.800,69.228 342.800 C 69.733 342.800,70.000 343.076,70.000 343.600 C 70.000 344.181,70.267 344.400,70.972 344.400 C 71.676 344.400,71.980 344.649,72.072 345.300 C 72.170 345.992,72.503 346.229,73.513 346.326 C 74.275 346.400,75.029 346.777,75.309 347.226 C 75.575 347.652,76.109 348.000,76.496 348.000 C 76.980 348.000,77.200 348.312,77.200 349.000 C 77.200 349.800,77.400 350.000,78.200 350.000 C 78.948 350.000,79.200 350.211,79.200 350.837 C 79.200 351.325,79.519 351.758,79.963 351.874 C 80.383 351.984,80.816 352.417,80.926 352.837 C 81.067 353.379,81.481 353.600,82.353 353.600 C 83.222 353.600,83.773 353.893,84.237 354.600 C 84.597 355.150,85.231 355.600,85.646 355.600 C 86.133 355.600,86.400 355.883,86.400 356.400 C 86.400 356.981,86.667 357.200,87.372 357.200 C 88.076 357.200,88.380 357.449,88.472 358.100 C 88.578 358.848,88.887 359.021,90.300 359.123 C 91.674 359.222,92.000 359.395,92.000 360.023 C 92.000 360.524,92.274 360.800,92.772 360.800 C 93.268 360.800,93.590 361.122,93.672 361.700 C 93.778 362.448,94.087 362.621,95.500 362.723 C 96.874 362.822,97.200 362.995,97.200 363.623 C 97.200 364.185,97.477 364.400,98.200 364.400 C 98.812 364.400,99.200 364.628,99.200 364.986 C 99.200 365.723,100.432 366.400,101.774 366.400 C 102.533 366.400,102.800 366.608,102.800 367.200 C 102.800 367.881,103.067 368.000,104.600 368.000 C 106.253 368.000,106.400 368.081,106.400 369.000 C 106.400 369.916,106.549 370.000,108.172 370.000 C 109.705 370.000,109.962 370.121,110.072 370.900 C 110.178 371.648,110.487 371.821,111.900 371.923 C 113.274 372.022,113.600 372.195,113.600 372.823 C 113.600 373.475,113.884 373.600,115.372 373.600 C 116.905 373.600,117.162 373.721,117.272 374.500 C 117.378 375.244,117.688 375.421,119.059 375.521 C 120.307 375.612,120.768 375.835,120.921 376.421 C 121.086 377.050,121.478 377.200,122.963 377.200 C 124.499 377.200,124.800 377.324,124.800 377.957 C 124.800 378.911,125.551 379.200,128.033 379.200 C 129.733 379.200,130.000 379.308,130.000 380.000 C 130.000 380.724,130.267 380.800,132.800 380.800 C 135.520 380.800,135.600 380.829,135.600 381.800 C 135.600 382.749,137.952 383.268,140.200 382.814 C 140.420 382.770,140.467 382.867,140.303 383.030 C 139.542 383.792,141.014 384.400,143.621 384.400 C 146.141 384.400,146.354 384.467,146.472 385.300 C 146.592 386.145,146.816 386.207,150.100 386.316 C 153.271 386.420,153.600 386.505,153.600 387.216 C 153.600 387.936,153.890 388.000,157.157 388.000 C 160.617 388.000,160.720 388.027,160.964 389.000 L 161.215 390.000 166.608 390.000 C 171.614 390.000,172.000 390.054,172.000 390.750 C 172.000 391.954,173.033 392.000,200.000 392.000 C 226.967 392.000,228.000 391.954,228.000 390.750 C 228.000 390.054,228.386 390.000,233.392 390.000 L 238.785 390.000 239.036 389.000 C 239.280 388.027,239.383 388.000,242.843 388.000 C 246.110 388.000,246.400 387.936,246.400 387.216 C 246.400 386.505,246.729 386.420,249.900 386.316 C 253.184 386.207,253.408 386.145,253.528 385.300 C 253.646 384.468,253.860 384.400,256.366 384.400 C 258.568 384.400,259.212 384.250,259.800 383.600 C 260.334 383.010,261.032 382.800,262.462 382.800 C 264.263 382.800,264.400 382.729,264.400 381.800 C 264.400 380.829,264.480 380.800,267.200 380.800 C 269.733 380.800,270.000 380.724,270.000 380.000 C 270.000 379.308,270.267 379.200,271.967 379.200 C 274.449 379.200,275.200 378.911,275.200 377.957 C 275.200 377.324,275.501 377.200,277.037 377.200 C 278.522 377.200,278.914 377.050,279.079 376.421 C 279.232 375.835,279.693 375.612,280.941 375.521 C 282.312 375.421,282.622 375.244,282.728 374.500 C 282.838 373.721,283.095 373.600,284.628 373.600 C 286.116 373.600,286.400 373.475,286.400 372.823 C 286.400 372.195,286.726 372.022,288.100 371.923 C 289.513 371.821,289.822 371.648,289.928 370.900 C 290.038 370.121,290.295 370.000,291.828 370.000 C 293.451 370.000,293.600 369.916,293.600 369.000 C 293.600 368.081,293.747 368.000,295.400 368.000 C 296.933 368.000,297.200 367.881,297.200 367.200 C 297.200 366.608,297.467 366.400,298.226 366.400 C 299.568 366.400,300.800 365.723,300.800 364.986 C 300.800 364.628,301.188 364.400,301.800 364.400 C 302.523 364.400,302.800 364.185,302.800 363.623 C 302.800 362.995,303.126 362.822,304.500 362.723 C 305.913 362.621,306.222 362.448,306.328 361.700 C 306.410 361.122,306.732 360.800,307.228 360.800 C 307.733 360.800,308.000 360.524,308.000 360.000 C 308.000 359.333,308.267 359.200,309.609 359.200 C 310.936 359.200,311.297 359.025,311.673 358.200 C 311.923 357.650,312.460 357.200,312.864 357.200 C 313.333 357.200,313.600 356.910,313.600 356.400 C 313.600 355.883,313.867 355.600,314.354 355.600 C 314.769 355.600,315.403 355.150,315.763 354.600 C 316.227 353.893,316.778 353.600,317.647 353.600 C 318.519 353.600,318.933 353.379,319.074 352.837 C 319.184 352.417,319.617 351.984,320.037 351.874 C 320.481 351.758,320.800 351.325,320.800 350.837 C 320.800 350.211,321.052 350.000,321.800 350.000 C 322.600 350.000,322.800 349.800,322.800 349.000 C 322.800 348.312,323.020 348.000,323.504 348.000 C 323.891 348.000,324.425 347.652,324.691 347.226 C 324.971 346.777,325.725 346.400,326.487 346.326 C 327.497 346.229,327.830 345.992,327.928 345.300 C 328.020 344.649,328.324 344.400,329.028 344.400 C 329.733 344.400,330.000 344.181,330.000 343.600 C 330.000 343.069,330.267 342.800,330.792 342.800 C 331.304 342.800,331.674 342.446,331.836 341.800 C 331.993 341.174,332.370 340.800,332.843 340.800 C 333.324 340.800,333.600 340.519,333.600 340.028 C 333.600 339.532,333.922 339.210,334.500 339.128 C 335.078 339.046,335.446 338.678,335.528 338.100 C 335.610 337.522,335.932 337.200,336.428 337.200 C 336.924 337.200,337.200 336.924,337.200 336.428 C 337.200 335.932,337.522 335.610,338.100 335.528 C 338.678 335.446,339.046 335.078,339.128 334.500 C 339.210 333.922,339.532 333.600,340.028 333.600 C 340.519 333.600,340.800 333.324,340.800 332.843 C 340.800 332.370,341.174 331.993,341.800 331.836 C 342.446 331.674,342.800 331.304,342.800 330.792 C 342.800 330.267,343.069 330.000,343.600 330.000 C 344.181 330.000,344.400 329.733,344.400 329.028 C 344.400 328.324,344.649 328.020,345.300 327.928 C 345.992 327.830,346.229 327.497,346.326 326.487 C 346.400 325.725,346.777 324.971,347.226 324.691 C 347.652 324.425,348.000 323.891,348.000 323.504 C 348.000 323.020,348.312 322.800,349.000 322.800 C 349.800 322.800,350.000 322.600,350.000 321.800 C 350.000 321.052,350.211 320.800,350.837 320.800 C 351.325 320.800,351.758 320.481,351.874 320.037 C 351.984 319.617,352.417 319.184,352.837 319.074 C 353.379 318.933,353.600 318.519,353.600 317.647 C 353.600 316.778,353.893 316.227,354.600 315.763 C 355.150 315.403,355.600 314.769,355.600 314.354 C 355.600 313.867,355.883 313.600,356.400 313.600 C 356.910 313.600,357.200 313.333,357.200 312.864 C 357.200 312.460,357.650 311.923,358.200 311.673 C 359.025 311.297,359.200 310.936,359.200 309.609 C 359.200 308.267,359.333 308.000,360.000 308.000 C 360.524 308.000,360.800 307.733,360.800 307.228 C 360.800 306.732,361.122 306.410,361.700 306.328 C 362.448 306.222,362.621 305.913,362.723 304.500 C 362.822 303.126,362.995 302.800,363.623 302.800 C 364.185 302.800,364.400 302.523,364.400 301.800 C 364.400 301.188,364.628 300.800,364.986 300.800 C 365.723 300.800,366.400 299.568,366.400 298.226 C 366.400 297.467,366.608 297.200,367.200 297.200 C 367.881 297.200,368.000 296.933,368.000 295.400 C 368.000 293.747,368.081 293.600,369.000 293.600 C 369.916 293.600,370.000 293.451,370.000 291.828 C 370.000 290.295,370.121 290.038,370.900 289.928 C 371.648 289.822,371.821 289.513,371.923 288.100 C 372.022 286.726,372.195 286.400,372.823 286.400 C 373.475 286.400,373.600 286.116,373.600 284.628 C 373.600 283.095,373.721 282.838,374.500 282.728 C 375.244 282.622,375.421 282.312,375.521 280.941 C 375.612 279.693,375.835 279.232,376.421 279.079 C 377.050 278.914,377.200 278.522,377.200 277.037 C 377.200 275.501,377.324 275.200,377.957 275.200 C 378.911 275.200,379.200 274.449,379.200 271.967 C 379.200 270.267,379.308 270.000,380.000 270.000 C 380.724 270.000,380.800 269.733,380.800 267.200 C 380.800 264.480,380.829 264.400,381.800 264.400 C 382.729 264.400,382.800 264.263,382.800 262.462 C 382.800 261.032,383.010 260.334,383.600 259.800 C 384.250 259.212,384.400 258.568,384.400 256.366 C 384.400 253.860,384.468 253.646,385.300 253.528 C 386.145 253.408,386.207 253.184,386.316 249.900 C 386.420 246.729,386.505 246.400,387.216 246.400 C 387.936 246.400,388.000 246.110,388.000 242.843 C 388.000 239.383,388.027 239.280,389.000 239.036 L 390.000 238.785 390.000 233.392 C 390.000 228.386,390.054 228.000,390.750 228.000 C 391.954 228.000,392.000 226.967,392.000 200.000 C 392.000 173.033,391.954 172.000,390.750 172.000 C 390.054 172.000,390.000 171.614,390.000 166.608 L 390.000 161.215 389.000 160.964 C 388.027 160.720,388.000 160.617,388.000 157.157 C 388.000 153.890,387.936 153.600,387.216 153.600 C 386.505 153.600,386.420 153.271,386.316 150.100 C 386.207 146.816,386.145 146.592,385.300 146.472 C 384.467 146.354,384.400 146.141,384.400 143.621 C 384.400 141.014,383.792 139.542,383.030 140.303 C 382.867 140.467,382.770 140.420,382.814 140.200 C 383.268 137.952,382.749 135.600,381.800 135.600 C 380.829 135.600,380.800 135.520,380.800 132.800 C 380.800 130.267,380.724 130.000,380.000 130.000 C 379.308 130.000,379.200 129.733,379.200 128.033 C 379.200 125.551,378.911 124.800,377.957 124.800 C 377.324 124.800,377.200 124.499,377.200 122.963 C 377.200 121.478,377.050 121.086,376.421 120.921 C 375.835 120.768,375.612 120.307,375.521 119.059 C 375.421 117.688,375.244 117.378,374.500 117.272 C 373.721 117.162,373.600 116.905,373.600 115.372 C 373.600 113.884,373.475 113.600,372.823 113.600 C 372.195 113.600,372.022 113.274,371.923 111.900 C 371.821 110.487,371.648 110.178,370.900 110.072 C 370.121 109.962,370.000 109.705,370.000 108.172 C 370.000 106.549,369.916 106.400,369.000 106.400 C 368.081 106.400,368.000 106.253,368.000 104.600 C 368.000 103.067,367.881 102.800,367.200 102.800 C 366.608 102.800,366.400 102.533,366.400 101.774 C 366.400 100.432,365.723 99.200,364.986 99.200 C 364.628 99.200,364.400 98.812,364.400 98.200 C 364.400 97.477,364.185 97.200,363.623 97.200 C 362.995 97.200,362.822 96.874,362.723 95.500 C 362.621 94.087,362.448 93.778,361.700 93.672 C 361.122 93.590,360.800 93.268,360.800 92.772 C 360.800 92.274,360.524 92.000,360.023 92.000 C 359.395 92.000,359.222 91.674,359.123 90.300 C 359.021 88.887,358.848 88.578,358.100 88.472 C 357.449 88.380,357.200 88.076,357.200 87.372 C 357.200 86.667,356.981 86.400,356.400 86.400 C 355.883 86.400,355.600 86.133,355.600 85.646 C 355.600 85.231,355.150 84.597,354.600 84.237 C 353.893 83.773,353.600 83.222,353.600 82.353 C 353.600 81.481,353.379 81.067,352.837 80.926 C 352.417 80.816,351.984 80.383,351.874 79.963 C 351.758 79.519,351.325 79.200,350.837 79.200 C 350.211 79.200,350.000 78.948,350.000 78.200 C 350.000 77.400,349.800 77.200,349.000 77.200 C 348.312 77.200,348.000 76.980,348.000 76.496 C 348.000 76.109,347.652 75.575,347.226 75.309 C 346.777 75.029,346.400 74.275,346.326 73.513 C 346.229 72.503,345.992 72.170,345.300 72.072 C 344.649 71.980,344.400 71.676,344.400 70.972 C 344.400 70.267,344.181 70.000,343.600 70.000 C 343.076 70.000,342.800 69.733,342.800 69.228 C 342.800 68.732,342.478 68.410,341.900 68.328 C 341.322 68.246,340.954 67.878,340.872 67.300 C 340.792 66.735,340.467 66.400,340.000 66.400 C 339.533 66.400,339.208 66.065,339.128 65.500 C 339.046 64.922,338.678 64.554,338.100 64.472 C 337.522 64.390,337.200 64.068,337.200 63.572 C 337.200 63.076,336.924 62.800,336.428 62.800 C 335.932 62.800,335.610 62.478,335.528 61.900 C 335.446 61.322,335.078 60.954,334.500 60.872 C 333.922 60.790,333.600 60.468,333.600 59.972 C 333.600 59.481,333.324 59.200,332.843 59.200 C 332.370 59.200,331.993 58.826,331.836 58.200 C 331.674 57.554,331.304 57.200,330.792 57.200 C 330.267 57.200,330.000 56.931,330.000 56.400 C 330.000 55.819,329.733 55.600,329.028 55.600 C 328.324 55.600,328.020 55.351,327.928 54.700 C 327.830 54.008,327.497 53.771,326.487 53.674 C 325.725 53.600,324.971 53.223,324.691 52.774 C 324.425 52.348,323.891 52.000,323.504 52.000 C 323.020 52.000,322.800 51.688,322.800 51.000 C 322.800 50.200,322.600 50.000,321.800 50.000 C 321.067 50.000,320.800 49.787,320.800 49.200 C 320.800 48.750,320.533 48.400,320.190 48.400 C 319.855 48.400,319.409 47.950,319.200 47.400 C 318.911 46.640,318.532 46.400,317.619 46.400 C 316.780 46.400,316.221 46.099,315.763 45.400 C 315.403 44.850,314.769 44.400,314.354 44.400 C 313.867 44.400,313.600 44.117,313.600 43.600 C 313.600 43.090,313.333 42.800,312.864 42.800 C 312.460 42.800,311.915 42.332,311.654 41.759 C 311.238 40.846,310.985 40.737,309.590 40.870 C 308.158 41.006,308.000 40.931,308.000 40.111 C 308.000 39.478,307.765 39.200,307.228 39.200 C 306.732 39.200,306.410 38.878,306.328 38.300 C 306.222 37.552,305.913 37.379,304.500 37.277 C 303.126 37.178,302.800 37.005,302.800 36.377 C 302.800 35.815,302.523 35.600,301.800 35.600 C 301.188 35.600,300.800 35.372,300.800 35.014 C 300.800 34.277,299.568 33.600,298.226 33.600 C 297.467 33.600,297.200 33.392,297.200 32.800 C 297.200 32.119,296.933 32.000,295.400 32.000 C 293.747 32.000,293.600 31.919,293.600 31.000 C 293.600 30.081,293.453 30.000,291.800 30.000 C 290.304 30.000,290.000 29.873,290.000 29.247 C 290.000 28.479,288.992 28.016,287.300 28.005 C 286.668 28.002,286.400 27.761,286.400 27.200 C 286.400 26.520,286.133 26.400,284.628 26.400 C 283.095 26.400,282.838 26.279,282.728 25.500 C 282.622 24.756,282.312 24.579,280.941 24.479 C 279.693 24.388,279.232 24.165,279.079 23.579 C 278.914 22.950,278.522 22.800,277.037 22.800 C 275.501 22.800,275.200 22.676,275.200 22.043 C 275.200 21.089,274.449 20.800,271.967 20.800 C 270.267 20.800,270.000 20.692,270.000 20.000 C 270.000 19.276,269.733 19.200,267.200 19.200 C 264.480 19.200,264.400 19.171,264.400 18.200 C 264.400 17.271,264.263 17.200,262.462 17.200 C 261.032 17.200,260.334 16.990,259.800 16.400 C 259.212 15.750,258.568 15.600,256.366 15.600 C 253.860 15.600,253.646 15.532,253.528 14.700 C 253.408 13.855,253.184 13.793,249.900 13.684 C 246.729 13.580,246.400 13.495,246.400 12.784 C 246.400 12.064,246.110 12.000,242.843 12.000 C 239.383 12.000,239.280 11.973,239.036 11.000 L 238.785 10.000 233.392 10.000 C 228.405 10.000,228.000 9.944,228.000 9.257 C 228.000 8.641,227.578 8.470,225.541 8.257 C 222.992 7.991,176.701 8.023,173.700 8.293 M214.992 87.030 C 219.767 87.227,223.028 88.225,224.458 89.928 C 224.991 90.562,225.460 90.672,226.926 90.507 C 229.135 90.258,231.871 91.122,233.921 92.716 C 235.865 94.227,236.607 94.658,236.238 94.062 C 235.808 93.365,240.484 93.470,241.868 94.188 C 242.490 94.511,243.846 94.880,244.881 95.009 C 246.478 95.208,246.890 95.451,247.613 96.622 C 248.082 97.380,248.676 97.997,248.933 97.994 C 249.201 97.990,249.144 97.823,248.800 97.600 C 247.102 96.503,254.146 97.999,256.495 99.235 C 256.877 99.436,257.496 99.600,257.872 99.600 C 258.247 99.600,260.185 100.126,262.177 100.768 C 273.187 104.319,274.855 104.804,279.000 105.656 C 280.100 105.882,281.810 106.502,282.800 107.033 C 283.790 107.565,285.935 108.336,287.566 108.746 C 289.197 109.156,290.729 109.741,290.970 110.046 C 292.109 111.484,294.114 112.521,294.856 112.058 C 296.154 111.247,300.633 112.246,303.755 114.042 C 304.812 114.649,307.736 115.467,310.778 116.006 C 312.196 116.258,314.174 116.899,315.175 117.432 C 316.404 118.086,317.645 118.400,319.004 118.400 C 320.489 118.400,321.399 118.661,322.486 119.400 C 323.357 119.992,324.524 120.400,325.346 120.400 C 327.198 120.400,328.000 120.747,328.000 121.547 C 328.000 122.026,328.355 122.207,329.290 122.204 C 330.265 122.201,330.616 122.395,330.729 123.000 C 330.812 123.440,331.151 124.383,331.483 125.096 C 331.979 126.160,332.040 127.485,331.824 132.496 C 331.489 140.286,331.496 139.729,331.536 155.962 C 331.555 163.531,331.486 169.861,331.382 170.029 C 331.278 170.197,331.412 172.065,331.679 174.180 C 332.078 177.339,332.069 178.257,331.626 179.313 C 331.329 180.021,331.052 181.064,331.010 181.631 C 330.900 183.105,330.489 183.600,329.376 183.600 C 328.839 183.600,328.040 183.960,327.600 184.400 C 327.160 184.840,326.357 185.200,325.815 185.200 C 325.273 185.200,323.910 185.562,322.786 186.006 C 321.662 186.449,319.540 186.983,318.071 187.193 C 316.602 187.404,314.690 187.940,313.822 188.384 C 312.955 188.829,311.605 189.300,310.822 189.432 C 310.040 189.564,308.637 190.015,307.704 190.436 C 306.772 190.856,305.831 191.200,305.614 191.200 C 305.397 191.200,304.630 191.559,303.910 191.999 C 303.189 192.438,302.218 192.798,301.750 192.799 C 301.283 192.799,300.117 193.077,299.159 193.415 C 298.200 193.753,296.289 194.189,294.910 194.384 C 293.427 194.594,291.972 195.078,291.348 195.570 C 290.767 196.026,289.708 196.400,288.995 196.400 C 288.281 196.400,287.091 196.650,286.349 196.955 C 285.607 197.261,284.190 197.625,283.200 197.764 C 281.694 197.977,275.527 199.749,272.600 200.811 C 271.264 201.296,267.044 202.000,265.476 202.000 C 264.496 202.000,264.000 202.183,264.000 202.546 C 264.000 203.952,260.962 205.297,258.447 205.005 C 255.900 204.710,253.894 205.169,251.920 206.498 C 249.180 208.344,246.663 209.178,245.000 208.791 C 242.664 208.248,242.518 208.287,242.071 209.569 C 241.847 210.212,241.289 210.938,240.832 211.183 C 239.834 211.717,239.551 216.400,240.516 216.400 C 241.343 216.400,241.345 224.571,240.518 226.504 C 239.961 227.807,239.946 228.225,240.409 229.628 C 240.831 230.904,240.844 231.523,240.472 232.552 C 239.717 234.639,239.800 290.664,240.557 290.036 C 241.530 289.228,242.232 293.166,241.591 295.836 C 241.086 297.941,240.433 298.389,240.366 296.676 C 240.335 295.889,240.299 295.905,240.018 296.835 C 239.845 297.404,239.369 298.394,238.959 299.035 C 238.370 299.956,238.349 300.094,238.859 299.691 C 239.411 299.255,239.531 299.327,239.696 300.192 C 239.872 301.109,239.704 301.257,237.876 301.800 C 236.769 302.128,235.446 302.671,234.935 303.006 C 234.327 303.404,232.870 303.641,230.704 303.693 C 228.887 303.736,227.715 303.836,228.100 303.915 C 229.286 304.158,228.876 304.558,226.289 305.678 C 220.272 308.284,217.404 309.232,215.629 309.202 C 213.238 309.161,209.857 309.629,209.588 310.038 C 209.132 310.734,204.644 311.136,203.561 310.578 C 202.990 310.284,202.163 310.137,201.724 310.252 C 200.655 310.531,194.987 308.119,193.881 306.913 C 192.676 305.601,191.445 305.155,188.436 304.943 C 187.026 304.843,185.101 304.410,184.158 303.981 C 183.215 303.551,182.119 303.200,181.722 303.200 C 180.601 303.199,177.116 301.773,176.633 301.117 C 176.219 300.554,174.726 300.207,170.800 299.759 C 167.738 299.409,167.226 299.220,166.070 298.010 C 164.986 296.876,163.505 296.324,159.600 295.600 C 156.264 294.981,154.286 294.373,153.240 293.644 C 151.996 292.777,149.205 291.720,147.003 291.283 C 145.940 291.071,145.255 290.661,144.952 290.055 C 144.359 288.865,142.934 287.859,142.603 288.396 C 142.136 289.150,135.150 287.897,133.809 286.818 C 133.584 286.637,130.970 285.669,128.000 284.668 C 125.030 283.666,121.700 282.486,120.600 282.046 C 117.734 280.899,117.099 280.690,116.200 280.597 C 115.760 280.551,114.680 280.310,113.800 280.059 C 112.920 279.809,111.750 279.596,111.200 279.586 C 110.650 279.575,109.390 279.142,108.400 278.623 C 104.537 276.596,101.428 275.185,99.949 274.786 C 99.099 274.557,98.034 273.974,97.584 273.490 C 96.975 272.837,96.685 272.739,96.456 273.110 C 96.108 273.673,90.078 272.380,88.594 271.424 C 86.853 270.303,86.835 269.665,86.572 199.600 C 86.434 162.970,86.294 130.570,86.259 127.600 C 86.199 122.445,86.434 121.106,87.591 120.000 C 87.706 119.890,87.800 119.530,87.800 119.200 C 87.800 118.805,88.142 118.627,88.800 118.679 C 90.499 118.814,91.592 118.445,91.351 117.817 C 91.092 117.141,94.391 116.051,97.228 115.876 C 98.203 115.816,99.360 115.571,99.800 115.331 C 100.240 115.091,101.230 114.763,102.000 114.601 C 102.770 114.440,103.602 114.145,103.849 113.947 C 105.685 112.473,111.826 111.186,112.727 112.087 C 113.361 112.721,115.650 111.553,116.212 110.309 C 116.598 109.455,118.805 108.762,123.000 108.177 C 125.167 107.875,128.522 106.891,131.287 105.747 C 133.800 104.707,138.019 103.951,141.917 103.840 C 144.155 103.777,144.534 103.645,145.331 102.645 C 146.259 101.481,150.518 100.438,149.836 101.541 C 149.680 101.794,149.722 102.000,149.930 102.000 C 150.137 102.000,150.390 101.685,150.491 101.300 C 150.672 100.611,151.650 100.179,155.200 99.224 C 156.190 98.957,157.720 98.392,158.600 97.968 C 159.480 97.545,160.830 97.198,161.600 97.197 C 162.370 97.197,164.080 96.658,165.400 96.000 C 166.720 95.342,168.376 94.802,169.080 94.802 C 169.785 94.801,171.398 94.530,172.665 94.200 C 175.424 93.481,176.142 93.447,175.767 94.053 C 175.564 94.382,176.133 94.433,177.844 94.238 C 180.466 93.939,183.188 92.859,183.195 92.115 C 183.200 91.635,186.695 90.400,188.049 90.400 C 188.436 90.400,188.851 90.240,188.972 90.045 C 189.328 89.469,191.823 89.153,192.872 89.551 C 194.005 89.982,195.268 89.443,194.967 88.658 C 194.682 87.916,197.357 87.201,200.446 87.194 C 201.851 87.191,203.270 87.000,203.600 86.771 C 203.987 86.502,205.619 86.454,208.200 86.635 C 210.400 86.789,213.456 86.967,214.992 87.030 M283.172 326.100 C 283.123 329.028,282.460 329.742,282.428 326.900 C 282.412 325.481,282.573 324.400,282.800 324.400 C 283.020 324.400,283.187 325.165,283.172 326.100 " stroke="none" fill="#044cfb" fill-rule="evenodd"></path><path id="path2" d="M202.600 87.058 C 202.160 87.173,201.573 87.559,201.296 87.915 C 200.950 88.361,199.954 88.615,198.096 88.731 C 196.404 88.836,195.028 89.160,194.400 89.601 C 193.850 89.987,192.454 90.432,191.299 90.589 C 190.143 90.747,189.053 91.133,188.877 91.448 C 188.674 91.812,187.453 92.145,185.542 92.359 C 183.885 92.545,182.095 92.976,181.564 93.316 C 181.034 93.656,179.395 94.059,177.922 94.211 C 176.062 94.404,175.035 94.719,174.560 95.244 C 174.101 95.752,173.336 96.000,172.232 96.000 C 171.328 96.000,169.919 96.359,169.102 96.797 C 168.284 97.235,166.728 97.659,165.643 97.740 C 164.410 97.831,163.263 98.207,162.582 98.743 C 161.756 99.393,160.937 99.600,159.200 99.600 C 157.498 99.600,156.641 99.810,155.869 100.417 C 155.261 100.896,153.955 101.327,152.715 101.457 C 151.552 101.580,150.114 102.022,149.519 102.438 C 148.882 102.885,147.526 103.261,146.216 103.354 C 144.993 103.441,143.547 103.805,143.002 104.162 C 142.457 104.519,140.926 104.924,139.600 105.063 C 138.126 105.217,136.857 105.603,136.334 106.058 C 135.753 106.561,134.853 106.800,133.539 106.800 C 132.189 106.800,131.376 107.024,130.864 107.536 C 130.386 108.014,129.248 108.365,127.621 108.535 C 126.243 108.679,124.459 109.140,123.657 109.560 C 122.856 109.980,120.895 110.537,119.300 110.798 C 117.705 111.059,116.400 111.416,116.400 111.590 C 116.400 111.765,115.425 112.030,114.233 112.179 C 113.041 112.328,111.693 112.772,111.238 113.167 C 110.739 113.600,109.428 113.988,107.935 114.144 C 106.574 114.286,105.153 114.680,104.777 115.020 C 104.389 115.372,102.865 115.770,101.247 115.943 C 99.288 116.152,98.244 116.460,97.900 116.930 C 97.548 117.410,96.569 117.685,94.600 117.857 C 92.968 118.000,91.280 118.415,90.553 118.851 C 89.867 119.263,89.025 119.600,88.681 119.600 C 86.689 119.600,86.800 115.198,86.806 194.129 C 86.812 273.137,86.697 269.050,88.943 269.649 C 89.572 269.817,90.382 270.210,90.743 270.523 C 91.104 270.836,92.270 271.205,93.333 271.343 C 94.396 271.481,95.725 271.955,96.287 272.397 C 96.989 272.949,97.911 273.200,99.240 273.200 C 100.717 273.200,101.266 273.376,101.572 273.948 C 101.855 274.477,102.563 274.752,103.990 274.889 C 105.100 274.996,106.326 275.371,106.715 275.723 C 107.103 276.074,108.226 276.478,109.210 276.621 C 110.195 276.763,111.493 277.226,112.096 277.649 C 112.699 278.072,113.779 278.533,114.496 278.673 C 115.213 278.814,116.223 279.202,116.740 279.537 C 117.257 279.871,118.669 280.279,119.876 280.443 C 121.084 280.607,122.370 281.009,122.736 281.337 C 123.101 281.664,124.120 282.059,125.000 282.215 C 125.880 282.370,127.161 282.835,127.847 283.249 C 128.533 283.662,129.724 284.000,130.493 284.000 C 131.263 284.000,132.321 284.333,132.846 284.739 C 133.371 285.146,134.658 285.593,135.707 285.732 C 136.756 285.872,138.106 286.333,138.707 286.756 C 139.308 287.179,140.501 287.645,141.358 287.792 C 142.216 287.938,143.296 288.301,143.758 288.598 C 144.221 288.895,145.500 289.263,146.600 289.417 C 147.700 289.570,148.960 290.011,149.400 290.396 C 149.840 290.781,150.978 291.214,151.929 291.357 C 152.880 291.501,154.170 291.998,154.797 292.461 C 155.590 293.047,156.489 293.292,157.762 293.266 C 159.146 293.238,159.682 293.406,159.979 293.961 C 160.237 294.442,160.982 294.762,162.156 294.894 C 163.137 295.004,164.428 295.479,165.024 295.948 C 165.620 296.416,166.671 296.800,167.360 296.800 C 168.048 296.800,169.292 297.165,170.123 297.610 C 170.954 298.056,172.482 298.535,173.517 298.674 C 174.666 298.830,175.604 299.216,175.923 299.664 C 176.268 300.151,176.946 300.401,177.923 300.402 C 178.790 300.403,180.061 300.811,181.000 301.390 C 181.880 301.932,183.012 302.381,183.516 302.388 C 184.020 302.394,185.108 302.745,185.935 303.167 C 186.761 303.588,188.149 304.061,189.019 304.217 C 189.888 304.374,190.899 304.762,191.264 305.080 C 191.630 305.399,192.932 305.795,194.158 305.962 C 195.384 306.128,196.706 306.553,197.095 306.905 C 197.485 307.258,198.748 307.672,199.902 307.825 C 201.056 307.978,202.000 308.238,202.000 308.403 C 202.000 309.769,212.750 310.074,214.259 308.751 C 214.667 308.393,215.661 307.889,216.468 307.630 C 217.275 307.371,218.134 306.921,218.375 306.630 C 218.616 306.339,219.755 305.976,220.905 305.824 C 222.055 305.671,223.267 305.307,223.598 305.015 C 223.929 304.722,225.221 304.275,226.469 304.020 C 227.717 303.765,228.954 303.296,229.218 302.978 C 229.482 302.660,230.217 302.400,230.852 302.400 C 231.584 302.400,232.323 302.035,232.875 301.400 C 233.547 300.627,234.130 300.400,235.439 300.400 C 240.360 300.400,239.959 304.545,239.979 253.462 C 239.997 205.679,239.874 208.000,242.383 208.000 C 243.429 208.000,244.309 207.692,245.069 207.059 C 245.893 206.373,246.886 206.057,248.730 205.894 C 250.200 205.764,251.553 205.404,251.961 205.035 C 252.347 204.686,253.189 204.399,253.831 204.398 C 255.417 204.395,258.000 203.648,258.000 203.193 C 258.000 202.989,258.585 202.654,259.300 202.448 C 260.587 202.076,260.589 202.072,259.487 202.036 C 258.875 202.016,257.745 202.263,256.975 202.585 C 256.206 202.906,254.466 203.370,253.110 203.616 C 251.753 203.862,249.966 204.409,249.138 204.832 C 248.309 205.254,247.347 205.600,247.000 205.600 C 246.378 205.600,242.033 206.871,239.924 207.670 C 238.357 208.263,238.383 207.593,238.076 254.474 L 237.800 296.748 236.630 297.969 C 235.986 298.641,234.849 299.305,234.102 299.445 C 233.356 299.585,232.534 300.037,232.276 300.450 C 231.973 300.936,231.345 301.200,230.495 301.200 C 229.303 301.200,222.360 303.637,221.400 304.393 C 221.180 304.566,220.370 304.842,219.600 305.007 C 218.830 305.172,217.573 305.643,216.806 306.053 C 216.039 306.464,215.139 306.802,214.806 306.804 C 214.473 306.806,213.300 307.250,212.200 307.791 C 209.529 309.105,205.033 309.213,203.491 308.000 C 202.931 307.560,202.090 307.200,201.621 307.200 C 201.152 307.200,200.100 306.867,199.284 306.459 C 198.468 306.052,196.935 305.506,195.877 305.247 C 194.819 304.989,193.292 304.422,192.483 303.988 C 191.674 303.555,190.759 303.200,190.450 303.200 C 189.632 303.200,183.539 301.153,182.600 300.562 C 182.160 300.286,181.084 299.928,180.208 299.768 C 179.333 299.608,178.073 299.145,177.408 298.740 C 176.744 298.335,175.710 298.002,175.111 298.001 C 174.512 298.001,173.252 297.657,172.311 297.238 C 169.640 296.049,165.142 294.462,163.600 294.164 C 162.830 294.015,161.573 293.557,160.806 293.147 C 160.039 292.736,159.070 292.400,158.653 292.400 C 158.236 292.400,157.333 292.059,156.647 291.642 C 155.961 291.226,154.590 290.756,153.600 290.600 C 152.610 290.443,151.170 289.986,150.400 289.585 C 149.630 289.184,148.330 288.746,147.511 288.612 C 146.692 288.478,145.864 288.085,145.670 287.740 C 145.475 287.391,144.379 286.941,143.202 286.728 C 142.037 286.516,140.706 286.107,140.242 285.819 C 139.779 285.530,138.595 285.175,137.610 285.028 C 136.626 284.882,135.546 284.521,135.210 284.225 C 134.875 283.930,133.790 283.497,132.800 283.263 C 130.532 282.727,126.198 281.163,124.520 280.276 C 123.816 279.904,122.800 279.600,122.264 279.600 C 121.727 279.600,120.503 279.244,119.544 278.809 C 118.585 278.374,117.305 278.014,116.700 278.009 C 116.095 278.004,115.253 277.653,114.829 277.229 C 114.401 276.801,113.200 276.339,112.129 276.190 C 111.068 276.043,109.570 275.612,108.800 275.231 C 108.030 274.851,106.500 274.297,105.400 274.000 C 104.300 273.703,103.040 273.239,102.600 272.969 C 102.160 272.699,101.233 272.360,100.539 272.216 C 99.846 272.072,98.592 271.604,97.754 271.177 C 96.916 270.750,95.864 270.401,95.415 270.403 C 94.967 270.405,93.125 269.751,91.323 268.950 L 88.046 267.494 87.923 196.647 C 87.855 157.681,87.859 124.720,87.931 123.400 L 88.061 121.000 92.931 119.463 C 95.609 118.618,98.643 117.583,99.674 117.163 C 100.705 116.743,102.270 116.400,103.151 116.400 C 104.033 116.400,105.350 116.054,106.077 115.631 C 106.805 115.208,108.300 114.743,109.400 114.597 C 110.500 114.452,111.940 114.093,112.600 113.799 C 113.260 113.506,114.520 113.148,115.400 113.004 C 116.943 112.752,117.768 112.518,125.200 110.232 C 127.070 109.657,128.965 109.189,129.411 109.193 C 129.857 109.197,130.587 108.944,131.033 108.632 C 131.480 108.319,132.997 107.854,134.405 107.599 C 135.814 107.344,137.424 106.899,137.983 106.612 C 138.542 106.324,140.199 105.903,141.665 105.676 C 143.131 105.449,144.751 105.000,145.265 104.678 C 145.779 104.356,147.137 103.976,148.282 103.835 C 149.427 103.693,151.137 103.226,152.082 102.797 C 153.027 102.369,154.302 102.014,154.916 102.009 C 155.530 102.004,156.738 101.640,157.600 101.200 C 158.462 100.760,159.857 100.400,160.699 100.400 C 161.542 100.400,162.906 100.056,163.730 99.635 C 164.555 99.215,166.168 98.745,167.315 98.591 C 168.462 98.438,170.120 97.994,171.000 97.606 C 171.880 97.218,173.257 96.783,174.060 96.640 C 174.863 96.496,176.033 96.132,176.660 95.831 C 177.287 95.530,178.848 95.160,180.129 95.009 C 181.409 94.859,183.209 94.394,184.129 93.976 C 185.048 93.559,186.215 93.214,186.722 93.209 C 187.229 93.204,188.399 92.863,189.322 92.451 C 190.245 92.040,191.971 91.580,193.158 91.430 C 194.345 91.280,196.003 90.807,196.842 90.379 C 197.681 89.950,198.994 89.600,199.758 89.600 C 201.363 89.600,203.252 88.962,203.675 88.278 C 204.203 87.424,211.516 87.797,213.385 88.773 C 214.256 89.228,215.568 89.600,216.301 89.600 C 217.033 89.600,218.120 89.942,218.716 90.360 C 219.312 90.778,220.770 91.222,221.955 91.347 C 223.140 91.473,224.420 91.856,224.800 92.200 C 225.179 92.543,226.459 92.984,227.645 93.179 C 228.830 93.374,230.340 93.817,231.000 94.164 C 231.660 94.511,232.650 94.800,233.200 94.806 C 233.750 94.813,234.922 95.145,235.804 95.546 C 236.686 95.947,238.126 96.406,239.004 96.567 C 239.882 96.728,240.976 97.101,241.436 97.397 C 241.896 97.693,243.426 98.161,244.836 98.437 C 246.246 98.713,247.940 99.267,248.600 99.668 C 249.260 100.069,250.392 100.398,251.116 100.399 C 251.840 100.399,253.138 100.760,254.000 101.200 C 254.862 101.640,255.995 102.000,256.516 102.000 C 257.037 102.000,259.789 102.792,262.632 103.761 C 265.474 104.729,268.493 105.641,269.340 105.786 C 270.187 105.932,271.447 106.297,272.140 106.596 C 272.833 106.896,275.290 107.705,277.600 108.394 C 279.910 109.084,282.430 109.908,283.200 110.227 C 283.970 110.545,285.550 110.980,286.711 111.194 C 287.872 111.408,289.218 111.796,289.704 112.055 C 290.189 112.315,291.759 112.846,293.193 113.236 C 298.654 114.720,299.838 115.095,301.080 115.738 C 301.784 116.102,302.788 116.400,303.310 116.400 C 303.833 116.400,305.549 116.850,307.123 117.400 C 308.697 117.950,310.213 118.401,310.492 118.402 C 310.772 118.404,311.520 118.676,312.155 119.007 C 312.791 119.339,314.591 119.946,316.155 120.356 C 317.720 120.767,319.585 121.305,320.300 121.551 C 322.527 122.320,324.118 122.867,326.488 123.679 C 328.603 124.404,328.796 124.573,329.051 125.931 C 329.363 127.593,328.898 178.943,328.559 180.237 C 328.337 181.085,325.068 182.593,321.317 183.579 C 320.391 183.823,319.537 184.179,319.418 184.372 C 319.299 184.564,318.076 184.849,316.701 185.005 C 315.325 185.160,313.432 185.634,312.492 186.057 C 311.553 186.481,309.983 186.977,309.004 187.160 C 308.025 187.343,306.814 187.760,306.312 188.087 C 305.810 188.415,304.500 188.813,303.400 188.972 C 302.300 189.132,301.040 189.491,300.600 189.771 C 300.160 190.051,298.810 190.506,297.600 190.783 C 296.390 191.059,295.130 191.418,294.800 191.581 C 294.470 191.743,293.210 192.093,292.000 192.357 C 289.616 192.878,286.420 193.790,281.393 195.383 C 279.629 195.943,277.829 196.406,277.393 196.413 C 276.957 196.420,276.261 196.682,275.846 196.996 C 275.431 197.310,274.261 197.688,273.246 197.836 C 272.231 197.984,270.500 198.415,269.400 198.796 C 268.300 199.176,266.415 199.719,265.212 200.003 C 264.008 200.287,262.478 200.852,261.812 201.258 L 260.600 201.997 262.337 201.999 C 263.470 201.999,264.427 201.722,265.091 201.200 C 265.719 200.706,266.714 200.400,267.692 200.400 C 268.629 200.400,269.730 200.077,270.387 199.610 C 271.004 199.170,272.540 198.697,273.848 198.544 C 275.253 198.380,276.386 198.018,276.661 197.644 C 276.968 197.228,277.877 196.987,279.363 196.927 C 280.595 196.877,282.416 196.476,283.410 196.037 C 284.404 195.597,286.199 195.056,287.399 194.834 C 288.598 194.612,290.080 194.179,290.690 193.871 C 291.301 193.562,292.579 193.211,293.531 193.089 C 294.483 192.967,295.563 192.599,295.931 192.269 C 296.299 191.940,297.500 191.541,298.600 191.382 C 299.700 191.223,301.050 190.780,301.600 190.397 C 302.193 189.984,303.639 189.628,305.154 189.521 C 306.914 189.397,307.858 189.135,308.193 188.678 C 308.499 188.259,309.675 187.873,311.381 187.631 C 312.867 187.421,314.380 186.990,314.742 186.673 C 315.104 186.357,316.375 186.010,317.567 185.901 C 318.927 185.778,319.912 185.462,320.211 185.052 C 320.522 184.627,321.298 184.394,322.444 184.382 C 325.062 184.356,328.031 183.449,328.864 182.421 C 330.005 181.011,330.010 124.495,328.869 123.462 C 328.466 123.098,327.919 122.800,327.653 122.800 C 327.386 122.800,326.430 122.423,325.527 121.963 C 324.434 121.405,323.404 121.184,322.443 121.302 C 321.345 121.436,320.729 121.253,319.869 120.539 C 319.137 119.931,318.220 119.599,317.269 119.597 C 316.461 119.596,315.260 119.237,314.600 118.800 C 313.840 118.297,312.723 118.004,311.554 118.003 C 310.264 118.001,309.373 117.737,308.596 117.125 C 307.952 116.619,306.566 116.126,305.306 115.955 C 304.108 115.792,302.830 115.392,302.464 115.066 C 302.099 114.740,300.720 114.342,299.400 114.182 C 298.074 114.020,296.578 113.560,296.056 113.153 C 295.537 112.748,294.243 112.301,293.180 112.160 C 292.118 112.019,291.163 111.680,291.058 111.407 C 290.952 111.131,289.744 110.785,288.334 110.627 C 286.778 110.452,285.491 110.063,285.000 109.617 C 284.499 109.163,283.362 108.827,281.954 108.718 C 280.453 108.601,279.341 108.254,278.600 107.672 C 277.942 107.154,276.925 106.800,276.093 106.800 C 275.324 106.800,274.133 106.456,273.447 106.036 C 272.761 105.616,271.162 105.145,269.894 104.989 C 268.555 104.825,267.452 104.465,267.266 104.132 C 267.074 103.789,266.022 103.462,264.655 103.321 C 263.062 103.156,262.253 102.873,261.994 102.390 C 261.716 101.870,260.966 101.653,259.015 101.529 C 257.124 101.408,256.265 101.169,255.892 100.659 C 255.568 100.215,254.536 99.841,253.095 99.645 C 251.840 99.475,250.457 99.014,250.023 98.621 C 249.588 98.227,248.370 97.809,247.316 97.692 C 246.262 97.575,245.026 97.236,244.569 96.939 C 244.112 96.642,242.689 96.204,241.406 95.967 C 240.124 95.730,238.686 95.282,238.211 94.971 C 237.737 94.660,236.460 94.290,235.374 94.149 C 234.288 94.008,233.130 93.663,232.800 93.383 C 232.470 93.103,231.173 92.747,229.918 92.593 C 228.487 92.417,227.154 91.956,226.341 91.356 C 225.504 90.739,224.500 90.400,223.508 90.400 C 222.663 90.400,221.510 90.097,220.946 89.728 C 220.381 89.358,218.932 88.921,217.726 88.757 C 216.337 88.569,215.339 88.195,215.005 87.739 C 214.476 87.015,204.798 86.484,202.600 87.058 " stroke="none" fill="#5989ef" fill-rule="evenodd"></path><path id="path3" d="M205.100 86.689 C 205.815 86.778,206.985 86.778,207.700 86.689 C 208.415 86.601,207.830 86.528,206.400 86.528 C 204.970 86.528,204.385 86.601,205.100 86.689 M215.023 87.163 C 214.600 87.847,215.659 88.477,217.700 88.754 C 218.920 88.920,220.381 89.358,220.946 89.728 C 222.144 90.513,224.550 90.650,224.306 89.919 C 223.842 88.526,215.679 86.102,215.023 87.163 M196.100 87.699 C 194.118 88.334,194.544 88.801,197.100 88.795 C 199.895 88.788,201.075 88.501,201.360 87.761 C 201.622 87.077,198.164 87.037,196.100 87.699 M190.200 89.485 C 189.760 89.591,189.229 89.840,189.020 90.039 C 188.811 90.237,188.349 90.400,187.993 90.400 C 186.745 90.400,183.200 91.635,183.200 92.070 C 183.200 92.777,188.445 92.221,188.865 91.469 C 189.072 91.100,190.079 90.748,191.404 90.582 C 193.711 90.294,194.212 89.857,192.700 89.452 C 191.722 89.190,191.411 89.194,190.200 89.485 M226.000 90.791 C 226.000 91.532,227.806 92.336,230.088 92.612 C 231.346 92.765,232.583 93.139,232.837 93.445 C 233.091 93.750,233.771 93.995,234.349 93.989 L 235.400 93.978 234.000 92.803 C 231.767 90.927,226.000 89.477,226.000 90.791 M172.600 94.209 C 171.500 94.515,169.970 94.773,169.200 94.784 C 168.430 94.794,166.720 95.342,165.400 96.000 C 164.080 96.658,162.370 97.197,161.600 97.197 C 160.830 97.198,159.480 97.545,158.600 97.968 C 157.720 98.392,156.190 98.954,155.200 99.218 C 152.201 100.015,150.643 100.671,150.463 101.210 C 150.181 102.058,154.597 101.418,155.854 100.429 C 156.642 99.809,157.487 99.600,159.200 99.600 C 160.937 99.600,161.756 99.393,162.582 98.743 C 163.263 98.207,164.410 97.831,165.643 97.740 C 166.728 97.659,168.284 97.235,169.102 96.797 C 169.919 96.359,171.311 96.000,172.195 96.000 C 173.463 96.000,174.042 95.746,174.935 94.800 C 176.260 93.397,175.876 93.300,172.600 94.209 M236.000 93.764 C 236.000 94.174,239.638 95.628,241.591 95.998 C 242.780 96.224,244.162 96.676,244.662 97.004 C 245.600 97.619,248.007 97.832,247.991 97.300 C 247.960 96.239,246.441 95.190,244.600 94.957 C 243.500 94.818,242.201 94.456,241.714 94.152 C 240.933 93.665,236.000 93.330,236.000 93.764 M249.614 98.273 C 250.490 99.010,251.592 99.441,253.133 99.651 C 254.541 99.842,255.570 100.217,255.892 100.659 C 256.265 101.169,257.124 101.408,259.015 101.529 C 260.966 101.653,261.716 101.870,261.994 102.390 C 262.253 102.873,263.062 103.156,264.655 103.321 C 266.022 103.462,267.074 103.789,267.266 104.132 C 267.452 104.465,268.555 104.825,269.894 104.989 C 271.162 105.145,272.761 105.616,273.447 106.036 C 274.133 106.456,275.324 106.800,276.093 106.800 C 276.925 106.800,277.942 107.154,278.600 107.672 C 279.341 108.254,280.453 108.601,281.954 108.718 C 283.362 108.827,284.499 109.163,285.000 109.617 C 285.491 110.063,286.778 110.452,288.334 110.627 C 289.885 110.801,290.949 111.122,291.077 111.455 C 291.192 111.755,291.761 111.994,292.343 111.987 C 293.366 111.975,293.374 111.956,292.600 111.406 C 292.160 111.093,291.485 110.526,291.099 110.147 C 290.713 109.768,289.093 109.130,287.499 108.729 C 285.905 108.328,283.790 107.565,282.800 107.033 C 281.810 106.502,280.100 105.882,279.000 105.656 C 274.855 104.804,273.187 104.319,262.177 100.768 C 260.185 100.126,258.247 99.600,257.872 99.600 C 257.496 99.600,256.877 99.436,256.495 99.235 C 255.252 98.581,250.410 97.200,249.361 97.200 L 248.339 97.200 249.614 98.273 M146.432 101.706 C 144.430 102.727,145.193 103.746,147.592 103.255 C 149.630 102.838,150.556 101.198,148.749 101.206 C 148.007 101.209,146.964 101.434,146.432 101.706 M137.800 104.099 C 135.037 104.539,133.100 105.088,128.544 106.722 C 126.753 107.364,124.413 108.001,123.344 108.136 C 119.413 108.634,116.662 109.438,116.227 110.217 C 115.992 110.638,115.530 111.205,115.200 111.478 C 114.685 111.904,114.727 111.976,115.500 111.987 C 115.995 111.994,116.400 111.836,116.400 111.636 C 116.400 111.436,117.705 111.059,119.300 110.798 C 120.895 110.537,122.856 109.980,123.657 109.560 C 124.459 109.140,126.243 108.679,127.621 108.535 C 129.248 108.365,130.386 108.014,130.864 107.536 C 131.376 107.024,132.189 106.800,133.539 106.800 C 134.853 106.800,135.753 106.561,136.334 106.058 C 136.860 105.601,138.130 105.217,139.629 105.060 C 142.458 104.764,143.300 104.400,142.173 103.959 C 141.244 103.595,140.888 103.606,137.800 104.099 M107.175 112.565 C 105.732 113.079,104.202 113.698,103.775 113.940 C 103.349 114.183,102.243 114.571,101.317 114.802 C 100.391 115.033,99.509 115.424,99.356 115.672 C 98.915 116.385,103.921 115.796,104.760 115.036 C 105.146 114.687,106.570 114.286,107.935 114.144 C 109.466 113.984,110.737 113.602,111.266 113.142 C 111.737 112.734,112.285 112.400,112.485 112.400 C 112.684 112.400,112.736 112.220,112.600 112.000 C 112.192 111.340,109.962 111.572,107.175 112.565 M295.039 111.936 C 294.611 112.629,297.068 113.891,299.405 114.179 C 300.722 114.341,302.099 114.740,302.464 115.066 C 302.830 115.392,304.108 115.792,305.306 115.955 C 306.566 116.126,307.952 116.619,308.596 117.125 C 309.373 117.737,310.264 118.001,311.554 118.003 C 312.723 118.004,313.840 118.297,314.600 118.800 C 315.260 119.237,316.461 119.596,317.269 119.597 C 318.220 119.599,319.137 119.931,319.869 120.539 C 320.729 121.253,321.345 121.436,322.443 121.302 C 323.404 121.184,324.434 121.405,325.527 121.963 C 326.430 122.423,327.417 122.800,327.722 122.800 C 329.633 122.800,329.600 122.276,329.600 152.887 C 329.600 180.090,329.563 181.557,328.864 182.421 C 328.031 183.449,325.062 184.356,322.444 184.382 C 321.298 184.394,320.522 184.627,320.211 185.052 C 319.912 185.462,318.927 185.778,317.567 185.901 C 316.375 186.010,315.104 186.357,314.742 186.673 C 314.380 186.990,312.867 187.421,311.381 187.631 C 309.675 187.873,308.499 188.259,308.193 188.678 C 307.858 189.135,306.914 189.397,305.154 189.521 C 303.639 189.628,302.193 189.984,301.600 190.397 C 301.050 190.780,299.700 191.223,298.600 191.382 C 297.500 191.541,296.299 191.940,295.931 192.269 C 295.563 192.599,294.483 192.967,293.531 193.089 C 292.579 193.211,291.301 193.562,290.690 193.871 C 290.080 194.179,288.598 194.612,287.399 194.834 C 286.199 195.056,284.404 195.597,283.410 196.037 C 282.416 196.476,280.595 196.877,279.363 196.927 C 277.877 196.987,276.968 197.228,276.661 197.644 C 276.386 198.018,275.253 198.380,273.848 198.544 C 272.540 198.697,271.004 199.170,270.387 199.610 C 269.728 200.079,268.629 200.400,267.683 200.400 C 266.684 200.400,265.736 200.694,265.144 201.187 L 264.200 201.973 265.576 201.987 C 267.042 202.001,271.271 201.293,272.600 200.811 C 275.527 199.749,281.694 197.977,283.200 197.764 C 284.190 197.625,285.607 197.261,286.349 196.955 C 287.091 196.650,288.281 196.400,288.995 196.400 C 289.708 196.400,290.767 196.026,291.348 195.570 C 291.972 195.078,293.427 194.594,294.910 194.384 C 296.289 194.189,298.200 193.753,299.159 193.415 C 300.117 193.077,301.283 192.799,301.750 192.799 C 302.218 192.798,303.189 192.438,303.910 191.999 C 304.630 191.559,305.397 191.200,305.614 191.200 C 305.831 191.200,306.772 190.856,307.704 190.436 C 308.637 190.015,310.040 189.564,310.822 189.432 C 311.605 189.300,312.955 188.829,313.822 188.384 C 314.690 187.940,316.602 187.404,318.071 187.193 C 319.540 186.983,321.662 186.449,322.786 186.006 C 323.910 185.562,325.273 185.200,325.815 185.200 C 326.357 185.200,327.160 184.840,327.600 184.400 C 328.040 183.960,328.839 183.600,329.376 183.600 C 330.489 183.600,330.900 183.105,331.010 181.631 C 331.052 181.064,331.329 180.021,331.626 179.313 C 332.069 178.257,332.078 177.339,331.679 174.180 C 331.412 172.065,331.278 170.197,331.382 170.029 C 331.486 169.861,331.555 163.531,331.536 155.962 C 331.496 139.729,331.489 140.286,331.824 132.496 C 332.040 127.485,331.979 126.160,331.483 125.096 C 331.151 124.383,330.812 123.440,330.729 123.000 C 330.616 122.395,330.265 122.201,329.290 122.204 C 328.355 122.207,328.000 122.026,328.000 121.547 C 328.000 120.747,327.198 120.400,325.346 120.400 C 324.524 120.400,323.357 119.992,322.486 119.400 C 321.399 118.661,320.489 118.400,319.004 118.400 C 317.645 118.400,316.404 118.086,315.175 117.432 C 314.174 116.899,312.196 116.258,310.778 116.006 C 307.736 115.467,304.812 114.649,303.755 114.042 C 300.931 112.417,295.546 111.117,295.039 111.936 M96.400 115.901 C 91.290 116.624,89.533 118.242,94.245 117.885 C 96.746 117.696,99.989 116.307,98.716 115.969 C 98.114 115.810,97.230 115.784,96.400 115.901 M87.867 118.667 C 87.025 119.508,88.756 119.996,89.934 119.249 C 90.333 118.997,90.231 118.848,89.534 118.661 C 88.343 118.342,88.191 118.343,87.867 118.667 M86.367 121.767 C 86.101 122.033,86.278 134.011,86.552 134.285 C 86.688 134.422,86.800 131.623,86.800 128.067 C 86.800 124.510,86.740 121.600,86.667 121.600 C 86.593 121.600,86.458 121.675,86.367 121.767 M86.589 164.600 C 86.589 179.120,86.639 185.002,86.700 177.671 C 86.761 170.340,86.761 158.460,86.700 151.271 C 86.639 144.082,86.589 150.080,86.589 164.600 M259.300 202.448 C 258.585 202.654,258.000 202.989,258.000 203.193 C 258.000 203.648,255.417 204.395,253.831 204.398 C 253.189 204.399,252.347 204.686,251.961 205.035 C 251.553 205.404,250.200 205.764,248.730 205.894 C 246.886 206.057,245.893 206.373,245.069 207.059 C 244.318 207.684,243.428 208.000,242.415 208.000 C 240.681 208.000,239.363 209.423,239.806 210.818 C 240.150 211.903,241.521 211.147,242.071 209.569 C 242.518 208.287,242.664 208.248,245.000 208.791 C 246.663 209.178,249.180 208.344,251.920 206.498 C 253.894 205.169,255.900 204.710,258.447 205.005 C 260.962 205.297,264.000 203.952,264.000 202.546 C 264.000 201.907,261.362 201.852,259.300 202.448 M240.016 221.900 C 240.030 226.770,240.094 227.285,240.577 226.399 C 241.321 225.033,241.265 216.400,240.513 216.400 C 240.120 216.400,240.004 217.685,240.016 221.900 M240.012 231.200 C 240.012 232.766,240.124 233.227,240.400 232.800 C 240.613 232.470,240.788 231.750,240.788 231.200 C 240.788 230.650,240.613 229.930,240.400 229.600 C 240.124 229.173,240.012 229.634,240.012 231.200 M87.600 270.019 C 87.600 271.115,88.938 271.829,92.755 272.772 C 96.737 273.755,96.400 273.729,96.400 273.049 C 96.400 272.152,95.444 271.617,93.360 271.347 C 92.282 271.207,91.110 270.841,90.755 270.534 C 89.518 269.463,87.600 269.150,87.600 270.019 M97.600 273.551 C 97.600 273.893,98.857 274.480,100.714 275.004 C 101.644 275.267,105.153 276.919,108.400 278.623 C 109.390 279.142,110.650 279.575,111.200 279.586 C 111.750 279.596,112.920 279.809,113.800 280.059 C 114.680 280.310,115.760 280.551,116.200 280.597 C 117.099 280.690,117.734 280.899,120.600 282.046 C 121.700 282.486,125.030 283.666,128.000 284.668 C 130.970 285.669,133.584 286.637,133.809 286.818 C 134.384 287.280,140.180 288.800,141.369 288.800 C 142.983 288.800,142.941 288.061,141.311 287.783 C 140.480 287.641,139.300 287.173,138.689 286.742 C 138.078 286.312,136.654 285.850,135.526 285.717 C 134.337 285.576,133.164 285.164,132.737 284.737 C 132.292 284.292,131.425 284.000,130.547 284.000 C 129.748 284.000,128.533 283.662,127.847 283.249 C 127.161 282.835,125.880 282.370,125.000 282.215 C 124.120 282.059,123.101 281.664,122.736 281.337 C 122.370 281.009,121.084 280.607,119.876 280.443 C 118.669 280.279,117.257 279.871,116.740 279.537 C 116.223 279.202,115.213 278.814,114.496 278.673 C 113.779 278.533,112.699 278.072,112.096 277.649 C 111.493 277.226,110.195 276.763,109.210 276.621 C 108.226 276.478,107.103 276.074,106.715 275.723 C 106.326 275.371,105.100 274.996,103.990 274.889 C 102.563 274.752,101.855 274.477,101.572 273.948 C 101.154 273.166,97.600 272.811,97.600 273.551 M144.800 289.695 C 144.800 290.464,145.629 291.200,146.493 291.200 C 147.641 291.200,152.056 292.785,153.224 293.617 C 154.281 294.370,156.224 294.974,159.600 295.600 C 163.505 296.324,164.986 296.876,166.070 298.010 C 167.226 299.220,167.738 299.409,170.800 299.759 C 174.726 300.207,176.219 300.554,176.633 301.117 C 177.116 301.773,180.601 303.199,181.722 303.200 C 182.119 303.200,183.199 303.537,184.122 303.950 C 186.000 304.788,190.800 305.451,190.800 304.871 C 190.800 304.668,190.063 304.384,189.163 304.241 C 188.263 304.097,186.830 303.624,185.979 303.189 C 185.128 302.755,184.020 302.394,183.516 302.388 C 183.012 302.381,181.880 301.932,181.000 301.390 C 180.061 300.811,178.790 300.403,177.923 300.402 C 176.946 300.401,176.268 300.151,175.923 299.664 C 175.604 299.216,174.666 298.830,173.517 298.674 C 172.482 298.535,170.954 298.056,170.123 297.610 C 169.292 297.165,168.048 296.800,167.360 296.800 C 166.671 296.800,165.606 296.405,164.993 295.923 C 164.335 295.405,163.223 295.015,162.275 294.969 C 161.190 294.916,160.466 294.624,160.036 294.063 C 159.557 293.441,158.970 293.243,157.663 293.266 C 156.490 293.286,155.557 293.023,154.792 292.457 C 154.168 291.996,152.880 291.501,151.929 291.357 C 150.978 291.214,149.840 290.781,149.400 290.396 C 148.339 289.467,144.800 288.928,144.800 289.695 M240.501 290.078 C 239.670 291.080,239.483 293.044,240.007 295.277 C 240.706 298.254,240.861 298.370,241.459 296.368 C 242.324 293.477,241.603 288.750,240.501 290.078 M238.624 299.813 C 238.175 300.152,236.980 300.400,235.796 300.400 C 234.106 300.400,233.591 300.576,232.875 301.400 C 232.323 302.035,231.584 302.400,230.852 302.400 C 229.742 302.400,228.569 303.235,229.030 303.696 C 229.427 304.094,234.175 303.494,235.032 302.938 C 235.489 302.640,236.769 302.128,237.876 301.800 C 239.698 301.259,239.871 301.107,239.698 300.201 C 239.593 299.650,239.483 299.206,239.453 299.213 C 239.424 299.220,239.051 299.490,238.624 299.813 M225.000 304.288 C 224.560 304.395,223.930 304.718,223.600 305.006 C 223.270 305.293,222.100 305.657,221.000 305.813 C 219.900 305.970,218.718 306.344,218.373 306.644 C 218.029 306.945,217.049 307.433,216.196 307.728 C 214.052 308.470,213.923 309.200,215.936 309.200 C 217.920 309.200,228.762 305.067,228.789 304.300 C 228.801 303.977,226.309 303.969,225.000 304.288 M193.456 306.603 C 193.804 307.509,199.566 310.117,201.414 310.204 C 202.302 310.246,203.382 310.467,203.814 310.696 C 204.311 310.959,205.335 310.989,206.600 310.780 C 207.700 310.597,208.825 310.437,209.100 310.424 C 211.074 310.330,209.053 309.600,206.819 309.600 C 204.221 309.600,202.000 309.041,202.000 308.387 C 202.000 308.231,201.071 307.980,199.935 307.829 C 198.799 307.678,197.424 307.205,196.881 306.778 C 195.664 305.821,193.106 305.690,193.456 306.603 M282.428 326.900 C 282.448 328.667,282.557 329.165,282.800 328.600 C 283.282 327.477,283.282 324.400,282.800 324.400 C 282.573 324.400,282.412 325.481,282.428 326.900 " stroke="none" fill="#1953c9" fill-rule="evenodd"></path><path id="path4" d="M206.705 87.883 C 207.202 87.979,207.922 87.975,208.305 87.875 C 208.687 87.775,208.280 87.696,207.400 87.701 C 206.520 87.705,206.207 87.787,206.705 87.883 M203.600 88.361 C 203.600 88.873,201.328 89.600,199.724 89.600 C 198.978 89.600,197.700 89.940,196.884 90.355 C 196.068 90.770,194.170 91.301,192.667 91.534 C 191.163 91.767,189.698 92.153,189.409 92.392 C 189.121 92.631,188.101 92.981,187.143 93.170 L 185.400 93.512 187.369 93.556 C 188.665 93.585,189.579 93.381,190.046 92.958 C 190.436 92.605,192.106 92.082,193.757 91.795 C 195.409 91.508,197.169 90.987,197.669 90.637 C 198.169 90.287,199.213 89.990,199.989 89.977 C 201.771 89.949,204.089 89.155,204.303 88.500 C 204.393 88.225,204.272 88.000,204.033 88.000 C 203.795 88.000,203.600 88.162,203.600 88.361 M211.825 88.441 C 212.242 89.115,214.625 90.000,216.024 90.000 C 216.711 90.000,217.731 90.360,218.291 90.800 C 218.949 91.318,219.914 91.600,221.023 91.600 C 222.269 91.600,223.064 91.874,223.927 92.600 C 224.894 93.414,225.515 93.591,227.258 93.553 L 229.400 93.506 227.462 93.181 C 226.396 93.002,225.206 92.567,224.817 92.215 C 224.428 91.863,223.140 91.473,221.955 91.347 C 220.770 91.222,219.312 90.778,218.716 90.360 C 218.120 89.942,217.033 89.600,216.301 89.600 C 215.568 89.600,214.263 89.240,213.400 88.800 C 211.585 87.874,211.457 87.845,211.825 88.441 M183.600 94.200 C 183.050 94.514,182.060 94.792,181.400 94.817 C 180.740 94.843,180.435 94.957,180.721 95.072 C 181.486 95.378,183.743 94.879,184.631 94.208 C 185.619 93.460,184.904 93.454,183.600 94.200 M229.600 93.961 C 229.600 94.428,231.820 95.200,233.166 95.200 C 233.741 95.200,234.892 95.565,235.723 96.010 C 236.554 96.456,238.082 96.901,239.117 97.000 L 241.000 97.180 239.000 96.634 C 237.900 96.334,236.331 95.799,235.513 95.445 C 234.695 95.090,233.615 94.799,233.113 94.798 C 232.611 94.796,231.684 94.526,231.054 94.198 C 229.715 93.499,229.600 93.480,229.600 93.961 M176.699 95.779 C 176.094 96.095,174.834 96.524,173.899 96.734 C 172.275 97.098,172.258 97.116,173.513 97.157 C 174.235 97.181,175.495 96.909,176.313 96.552 C 177.131 96.196,178.340 95.765,179.000 95.593 L 180.200 95.282 179.000 95.243 C 178.340 95.222,177.305 95.463,176.699 95.779 M170.951 97.609 C 170.727 97.833,169.746 98.174,168.771 98.365 L 167.000 98.712 168.656 98.756 C 169.765 98.786,170.623 98.540,171.256 98.013 C 171.775 97.581,172.011 97.221,171.780 97.213 C 171.549 97.206,171.176 97.384,170.951 97.609 M241.200 97.487 C 241.200 98.080,243.093 98.805,244.519 98.757 C 245.668 98.719,245.614 98.673,244.000 98.317 C 243.010 98.099,241.975 97.736,241.700 97.511 C 241.397 97.263,241.200 97.253,241.200 97.487 M163.600 99.648 C 162.830 100.061,161.518 100.399,160.684 100.399 C 159.850 100.400,158.462 100.760,157.600 101.200 C 156.738 101.640,155.563 102.000,154.990 102.000 C 154.417 102.000,153.105 102.359,152.074 102.797 C 151.043 103.235,149.210 103.754,148.000 103.950 L 145.800 104.306 147.815 104.353 C 149.147 104.384,150.368 104.120,151.415 103.575 C 152.287 103.122,154.078 102.571,155.395 102.351 C 156.712 102.132,158.077 101.693,158.427 101.376 C 158.777 101.059,159.859 100.794,160.831 100.787 C 161.879 100.780,163.415 100.374,164.600 99.791 C 165.700 99.250,166.240 98.828,165.800 98.853 C 165.360 98.878,164.370 99.236,163.600 99.648 M248.000 99.800 C 248.990 100.330,250.462 100.772,251.271 100.782 C 252.081 100.792,253.022 101.079,253.364 101.421 C 253.705 101.763,255.030 102.210,256.307 102.416 C 257.584 102.622,259.379 103.152,260.295 103.595 C 261.212 104.038,262.465 104.390,263.081 104.378 C 264.426 104.352,257.903 102.000,256.484 102.000 C 255.980 102.000,254.862 101.640,254.000 101.200 C 253.138 100.760,251.840 100.399,251.116 100.399 C 250.392 100.398,249.211 100.038,248.490 99.599 C 247.770 99.159,246.960 98.808,246.690 98.818 C 246.421 98.828,247.010 99.270,248.000 99.800 M144.949 104.811 C 144.723 105.037,143.382 105.400,141.969 105.617 C 140.556 105.835,138.770 106.284,138.000 106.615 C 137.230 106.947,135.790 107.375,134.800 107.565 L 133.000 107.912 134.815 107.956 C 135.877 107.982,137.238 107.690,138.093 107.255 C 138.896 106.845,140.330 106.390,141.277 106.243 C 143.650 105.876,145.600 105.211,145.600 104.769 C 145.600 104.294,145.456 104.304,144.949 104.811 M264.820 104.949 C 265.161 105.314,266.595 105.815,268.006 106.064 C 269.416 106.312,271.117 106.849,271.785 107.256 C 272.453 107.664,273.591 107.998,274.314 107.999 C 275.037 107.999,276.061 108.284,276.590 108.630 C 277.118 108.977,278.753 109.511,280.221 109.819 C 281.689 110.126,283.101 110.552,283.359 110.766 C 283.617 110.980,284.901 111.334,286.214 111.553 C 287.526 111.772,289.313 112.322,290.185 112.775 C 291.056 113.229,292.187 113.600,292.699 113.600 C 293.210 113.600,294.039 113.869,294.540 114.198 C 295.042 114.526,296.340 114.912,297.426 115.054 C 298.512 115.197,300.030 115.622,300.800 116.000 C 301.570 116.378,303.100 116.791,304.200 116.918 C 305.486 117.067,305.914 117.026,305.400 116.803 C 304.960 116.612,304.110 116.444,303.511 116.428 C 302.912 116.413,301.652 116.049,300.711 115.619 C 299.770 115.190,297.650 114.459,296.000 113.994 C 294.350 113.530,292.190 112.877,291.200 112.544 C 290.210 112.211,288.680 111.750,287.800 111.520 C 286.920 111.291,285.390 110.847,284.400 110.534 C 283.410 110.220,281.430 109.594,280.000 109.141 C 278.570 108.688,276.320 107.984,275.000 107.575 C 273.680 107.167,271.790 106.577,270.800 106.265 C 269.810 105.952,268.280 105.520,267.400 105.303 C 266.520 105.087,265.440 104.770,265.000 104.598 C 264.269 104.314,264.254 104.344,264.820 104.949 M131.023 108.633 C 130.596 108.945,129.876 109.197,129.424 109.193 C 128.971 109.189,127.070 109.657,125.200 110.232 C 117.768 112.518,116.943 112.752,115.400 113.004 C 114.520 113.148,113.260 113.506,112.600 113.799 C 111.940 114.093,110.500 114.452,109.400 114.597 C 108.300 114.743,106.805 115.208,106.077 115.631 C 105.350 116.054,104.039 116.400,103.164 116.400 C 102.290 116.400,100.905 116.690,100.087 117.045 C 99.269 117.400,97.790 117.924,96.800 118.210 C 95.155 118.684,95.107 118.732,96.240 118.764 C 97.671 118.806,100.000 118.078,100.000 117.590 C 100.000 117.407,101.035 117.144,102.300 117.006 C 103.565 116.867,105.320 116.426,106.200 116.024 C 107.080 115.623,108.768 115.189,109.951 115.060 C 111.133 114.931,112.498 114.565,112.984 114.247 C 113.469 113.929,114.752 113.541,115.833 113.385 C 116.915 113.229,118.430 112.840,119.200 112.520 C 119.970 112.201,121.678 111.762,122.995 111.546 C 124.312 111.329,125.694 110.877,126.066 110.541 C 126.437 110.205,127.824 109.831,129.148 109.711 C 130.774 109.564,131.631 109.297,131.787 108.889 C 132.112 108.042,131.919 107.977,131.023 108.633 M307.144 117.967 C 307.798 118.544,308.598 118.789,309.744 118.764 L 311.400 118.728 309.600 118.211 C 308.610 117.927,307.440 117.568,307.000 117.414 C 306.304 117.169,306.322 117.241,307.144 117.967 M91.600 119.874 C 89.510 120.648,89.311 120.787,90.585 120.584 C 91.457 120.445,92.807 119.995,93.585 119.584 C 95.450 118.597,94.790 118.694,91.600 119.874 M311.600 118.990 C 311.600 119.402,313.896 120.321,315.600 120.591 C 316.590 120.748,317.788 121.123,318.263 121.423 C 318.737 121.724,319.997 122.175,321.063 122.425 C 322.128 122.676,323.763 123.222,324.696 123.640 C 325.628 124.058,326.798 124.387,327.296 124.372 C 328.139 124.346,327.091 123.887,322.900 122.447 C 322.185 122.201,321.015 121.798,320.300 121.551 C 319.585 121.305,317.650 120.752,316.000 120.323 C 314.350 119.893,312.829 119.375,312.620 119.171 C 312.219 118.779,311.600 118.669,311.600 118.990 M328.548 152.322 C 328.508 173.207,328.570 177.391,328.793 169.000 C 329.175 154.655,329.227 126.006,328.872 125.122 C 328.722 124.749,328.576 136.989,328.548 152.322 M87.753 129.800 C 87.753 132.440,87.818 133.468,87.897 132.084 C 87.975 130.701,87.974 128.541,87.895 127.284 C 87.816 126.028,87.752 127.160,87.753 129.800 M327.600 180.800 C 327.600 181.020,327.323 181.200,326.984 181.200 C 326.645 181.200,325.662 181.560,324.800 182.000 C 323.938 182.440,322.786 182.800,322.242 182.800 C 321.230 182.800,320.173 183.188,318.400 184.211 C 317.435 184.768,317.431 184.788,318.276 184.794 C 318.758 184.797,319.261 184.625,319.393 184.411 C 319.526 184.197,320.391 183.823,321.317 183.579 C 325.362 182.516,329.810 180.400,328.000 180.400 C 327.780 180.400,327.600 180.580,327.600 180.800 M312.665 185.447 C 312.040 185.786,311.631 186.164,311.755 186.288 C 311.879 186.412,312.245 186.295,312.567 186.027 C 312.890 185.759,314.019 185.395,315.077 185.217 L 317.000 184.894 315.400 184.863 C 314.520 184.846,313.289 185.109,312.665 185.447 M308.084 186.794 C 307.360 186.965,306.460 187.373,306.084 187.700 C 305.708 188.027,304.362 188.396,303.093 188.519 C 301.813 188.644,300.189 189.112,299.446 189.572 C 298.672 190.050,297.426 190.400,296.497 190.400 C 295.484 190.400,294.539 190.691,293.944 191.187 C 292.977 191.993,293.461 192.283,294.705 191.643 C 295.087 191.446,296.390 191.059,297.600 190.783 C 298.810 190.506,300.160 190.051,300.600 189.771 C 301.040 189.491,302.294 189.132,303.386 188.973 C 304.479 188.814,305.919 188.350,306.586 187.943 C 307.254 187.536,308.250 187.190,308.800 187.173 C 309.350 187.157,310.160 186.989,310.600 186.800 C 311.673 186.339,310.021 186.335,308.084 186.794 M288.137 192.773 C 287.222 193.188,285.422 193.746,284.137 194.012 C 282.851 194.279,281.440 194.767,281.000 195.098 L 280.200 195.698 281.000 195.397 C 281.440 195.232,282.759 194.863,283.932 194.577 C 285.105 194.291,286.905 193.780,287.932 193.441 C 288.959 193.101,290.520 192.657,291.400 192.453 L 293.000 192.083 291.400 192.050 C 290.520 192.032,289.051 192.357,288.137 192.773 M275.931 196.369 C 275.344 196.830,273.795 197.298,272.053 197.539 C 270.458 197.760,268.905 198.147,268.602 198.398 C 268.299 198.650,267.545 199.008,266.926 199.193 C 266.020 199.465,265.966 199.538,266.651 199.566 C 267.119 199.585,268.170 199.321,268.986 198.980 C 269.803 198.639,271.490 198.175,272.735 197.949 C 273.981 197.723,275.399 197.282,275.886 196.969 C 276.373 196.656,277.183 196.387,277.686 196.372 C 279.556 196.314,280.322 195.658,278.554 195.628 C 277.501 195.610,276.556 195.877,275.931 196.369 M262.490 200.401 C 261.770 200.841,260.527 201.200,259.729 201.200 C 258.930 201.200,257.360 201.628,256.239 202.151 C 255.117 202.674,253.369 203.221,252.354 203.367 C 251.339 203.513,250.169 203.886,249.754 204.195 C 249.106 204.679,249.225 204.679,250.600 204.197 C 251.480 203.888,252.609 203.627,253.110 203.618 C 253.610 203.608,255.044 203.240,256.296 202.800 C 257.548 202.360,258.992 202.000,259.506 202.000 C 260.020 202.000,261.016 201.688,261.720 201.307 C 262.424 200.925,263.630 200.404,264.400 200.149 C 265.618 199.744,265.670 199.679,264.800 199.643 C 264.250 199.621,263.211 199.962,262.490 200.401 M244.094 205.592 C 243.156 206.017,241.755 206.485,240.981 206.630 C 240.206 206.775,239.173 207.217,238.686 207.612 L 237.800 208.329 237.671 251.865 L 237.542 295.400 236.565 296.900 C 236.028 297.725,235.403 298.400,235.175 298.400 C 234.947 298.400,234.016 298.760,233.106 299.200 C 232.195 299.640,231.056 300.000,230.574 300.000 C 230.092 300.000,229.493 300.248,229.241 300.550 C 228.990 300.853,228.081 301.213,227.221 301.350 C 226.361 301.488,225.414 301.843,225.118 302.139 C 224.822 302.435,223.954 302.799,223.190 302.947 C 221.657 303.245,219.358 304.776,220.420 304.791 C 220.761 304.796,221.211 304.635,221.420 304.434 C 222.174 303.709,229.213 301.200,230.495 301.200 C 231.345 301.200,231.973 300.936,232.276 300.450 C 232.534 300.037,233.356 299.585,234.102 299.445 C 234.849 299.305,235.986 298.641,236.630 297.969 L 237.800 296.748 238.076 254.474 C 238.383 207.593,238.357 208.263,239.924 207.670 C 242.120 206.838,246.390 205.600,247.084 205.594 C 247.478 205.591,248.070 205.413,248.400 205.200 C 249.556 204.453,245.863 204.789,244.094 205.592 M88.000 267.129 C 88.000 267.590,94.381 270.407,95.415 270.403 C 95.864 270.401,96.937 270.760,97.800 271.200 C 98.663 271.640,99.556 271.994,99.785 271.987 C 100.468 271.965,98.367 270.400,97.654 270.400 C 96.694 270.400,91.556 268.480,90.825 267.848 C 90.054 267.181,88.000 266.659,88.000 267.129 M102.475 270.025 C 102.655 270.564,108.344 270.675,108.500 270.142 C 108.555 269.954,107.187 269.747,105.461 269.682 C 103.230 269.599,102.366 269.698,102.475 270.025 M101.326 272.407 C 101.945 272.592,102.665 272.909,102.926 273.110 C 103.187 273.311,104.300 273.708,105.400 273.992 C 106.500 274.276,107.821 274.768,108.335 275.086 C 109.278 275.669,110.064 275.483,109.373 274.839 C 109.168 274.648,107.689 274.084,106.087 273.586 C 104.484 273.088,103.079 272.527,102.963 272.340 C 102.847 272.153,102.178 272.015,101.476 272.034 L 100.200 272.069 101.326 272.407 M111.936 276.084 C 113.111 276.298,114.416 276.816,114.836 277.236 C 115.256 277.656,116.095 278.004,116.700 278.009 C 117.305 278.014,118.585 278.374,119.544 278.809 C 120.503 279.244,121.763 279.601,122.344 279.601 C 122.925 279.602,124.005 279.972,124.745 280.423 C 125.485 280.874,126.178 281.155,126.285 281.048 C 126.714 280.619,125.896 280.032,124.095 279.476 C 123.053 279.154,120.981 278.510,119.492 278.045 C 118.002 277.580,116.470 277.200,116.088 277.200 C 115.705 277.200,115.168 276.840,114.893 276.400 C 114.481 275.740,113.991 275.608,112.097 275.648 L 109.800 275.695 111.936 276.084 M127.839 277.138 C 127.700 277.361,127.782 277.665,128.020 277.812 C 128.635 278.193,129.032 277.672,128.518 277.158 C 128.231 276.871,128.007 276.864,127.839 277.138 M131.600 277.153 C 131.600 277.348,132.005 277.615,132.500 277.748 C 133.824 278.103,134.000 278.062,134.000 277.400 C 134.000 277.000,133.600 276.800,132.800 276.800 C 132.140 276.800,131.600 276.959,131.600 277.153 M129.340 282.181 C 130.627 282.710,132.372 283.260,133.217 283.403 C 134.062 283.546,134.966 283.918,135.226 284.231 C 135.486 284.544,135.986 284.800,136.338 284.800 C 137.914 284.800,135.246 283.107,133.345 282.900 C 132.275 282.784,130.922 282.354,130.338 281.944 C 129.754 281.535,128.764 281.204,128.138 281.209 C 127.211 281.217,127.434 281.397,129.340 282.181 M138.479 285.180 C 139.293 285.338,140.193 285.661,140.479 285.898 C 140.766 286.135,141.972 286.505,143.160 286.721 C 144.370 286.940,145.474 287.388,145.670 287.740 C 145.864 288.085,146.692 288.478,147.511 288.612 C 148.330 288.746,149.630 289.184,150.400 289.585 C 151.170 289.986,152.610 290.441,153.600 290.596 C 154.590 290.750,155.805 291.134,156.300 291.448 C 156.795 291.762,157.200 291.856,157.200 291.658 C 157.200 290.986,156.206 290.511,154.267 290.258 C 153.204 290.120,151.901 289.666,151.372 289.249 C 150.842 288.833,149.552 288.365,148.505 288.209 C 147.454 288.053,146.279 287.584,145.884 287.163 C 145.491 286.743,144.674 286.400,144.069 286.400 C 143.464 286.400,142.263 286.040,141.400 285.600 C 140.537 285.160,139.194 284.821,138.415 284.846 L 137.000 284.892 138.479 285.180 M225.744 291.801 C 225.305 292.947,225.957 294.400,226.908 294.394 C 228.702 294.382,228.922 293.816,227.660 292.464 C 226.327 291.037,226.071 290.948,225.744 291.801 M158.907 292.435 C 159.735 292.631,160.815 293.045,161.307 293.356 C 161.798 293.667,162.830 294.037,163.600 294.178 C 165.122 294.457,169.583 296.024,172.311 297.238 C 173.252 297.657,174.512 298.001,175.111 298.001 C 175.710 298.002,176.744 298.335,177.408 298.740 C 178.073 299.145,179.333 299.608,180.208 299.768 C 181.084 299.928,182.221 300.330,182.735 300.662 C 183.249 300.993,183.749 301.184,183.847 301.086 C 184.190 300.743,182.184 299.718,180.600 299.427 C 179.720 299.265,178.701 298.864,178.336 298.537 C 177.970 298.209,176.648 297.802,175.398 297.632 C 174.147 297.462,173.006 297.136,172.862 296.906 C 172.718 296.676,171.790 296.271,170.800 296.005 C 169.810 295.739,168.550 295.292,168.000 295.012 C 167.450 294.733,166.010 294.275,164.800 293.996 C 163.590 293.717,162.122 293.154,161.538 292.744 C 160.910 292.304,159.848 292.016,158.938 292.040 L 157.400 292.080 158.907 292.435 M231.616 293.381 C 231.168 293.921,231.292 294.000,232.584 294.000 C 233.591 294.000,234.014 293.840,233.902 293.500 C 233.655 292.751,232.202 292.675,231.616 293.381 M222.200 299.200 C 222.053 299.438,222.521 299.600,223.353 299.600 C 224.123 299.600,224.864 299.420,225.000 299.200 C 225.147 298.962,224.679 298.800,223.847 298.800 C 223.077 298.800,222.336 298.980,222.200 299.200 M217.778 300.470 C 217.244 302.151,219.186 302.700,220.976 301.375 C 221.745 300.806,221.745 300.794,220.976 300.213 C 219.774 299.303,218.106 299.437,217.778 300.470 M186.393 301.968 C 187.599 302.397,188.638 302.695,188.702 302.631 C 189.065 302.269,187.391 301.504,185.916 301.358 L 184.200 301.188 186.393 301.968 M190.507 303.202 C 191.335 303.416,192.466 303.887,193.019 304.249 C 193.572 304.612,194.125 304.808,194.247 304.686 C 194.681 304.252,192.573 303.237,190.800 303.027 L 189.000 302.814 190.507 303.202 M196.400 305.371 C 197.390 305.646,198.776 306.170,199.480 306.535 C 200.184 306.901,201.146 307.200,201.617 307.200 C 202.088 307.200,202.931 307.560,203.491 308.000 C 204.217 308.571,205.035 308.780,206.354 308.730 L 208.200 308.660 206.404 308.502 C 205.305 308.406,204.329 308.045,203.888 307.572 C 203.493 307.148,202.681 306.794,202.084 306.787 C 201.488 306.781,200.100 306.332,199.000 305.791 C 197.900 305.250,196.460 304.822,195.800 304.839 C 194.751 304.867,194.826 304.934,196.400 305.371 M216.192 305.540 C 215.527 305.945,214.318 306.401,213.505 306.554 C 212.175 306.803,210.536 307.869,210.908 308.242 C 210.989 308.322,211.755 308.031,212.612 307.594 C 213.468 307.157,214.446 306.799,214.785 306.798 C 215.123 306.796,215.940 306.505,216.600 306.151 C 217.260 305.797,218.250 305.364,218.800 305.188 C 219.779 304.875,219.775 304.868,218.600 304.836 C 217.940 304.818,216.856 305.135,216.192 305.540 " stroke="none" fill="#8cacdc" fill-rule="evenodd"></path></g></svg>